<svg width="195" height="49" viewBox="0 0 195 49" fill="none" xmlns="http://www.w3.org/2000/svg">
<g clip-path="url(#clip0_133_276)">
<path d="M0 0V25.2903C5.85866 26.0285 11.5174 26.8221 17.439 26.871C15.1536 37.1826 25.8351 43.2607 34.5172 36.7622C40.3491 32.3971 40.9288 24.0378 41.2195 17.3871C37.4463 16.0366 34.1049 14.7532 30.122 14.2258V9.48387H23.7805V6.32258H55.4878C51.3852 22.1328 51.8255 36.4514 38.0488 47.4194C42.1909 49.1544 46.2364 48.9886 50.7317 49C51.8866 34.5303 57.4755 20.7632 58.6585 6.32258H69.7561C67.8977 20.6707 62.9804 34.5776 61.8293 49C72.911 45.7681 68.6968 23.1193 74.4022 14.3209C81.7151 3.04317 97.8261 6.32258 109.39 6.32258C108.072 23.5448 94.2024 11.9842 84.9577 19.0117C78.7247 23.7498 79.0641 41.6909 77.6829 49H130C131.966 38.5952 134.3 27.9749 134.756 17.3871H110.976L112.561 6.32258C120.641 6.32258 134.047 3.77714 140.863 8.85697C151.495 16.782 142.479 38.3344 141.098 49H160.122C160.658 44.7681 162.405 39.414 160.729 35.2876C158.608 30.0675 152.629 27.4947 150.385 22.1058C148.366 17.2584 149.025 11.4553 149.024 6.32258H161.707C158.279 18.2433 169.713 28.5446 180.044 18.2824C183.376 14.972 183.661 10.7115 183.902 6.32258H195V0H0Z" fill="white"/>
<path d="M23.7805 6.32251V9.4838H30.122V14.2257L41.2195 17.387C40.9259 24.083 40.1415 31.0373 34.6493 35.6694C26.3225 42.6922 16.5837 37.0142 17.439 26.8709C11.5174 26.8221 5.85866 26.0284 0 25.2903C0.76486 29.0269 1.00828 29.2695 4.7561 30.0322C4.8949 35.7573 5.33777 41.1927 9.87428 45.3362C17.7131 52.496 36.5241 50.1781 43.8679 43.4152C53.5408 34.5073 52.543 18.2401 55.4878 6.32251H23.7805ZM58.6585 6.32251C56.7285 20.6122 51.3633 34.5562 50.7317 48.9999H61.8293C63.0123 34.5593 68.6012 20.7921 69.7561 6.32251H58.6585Z" fill="#04102A"/>
<path d="M66.5859 49C69.3494 48.9671 72.8634 49.3706 75.418 48.0462C84.1264 43.5314 78.1058 26.4984 84.9583 19.9215C91.4705 13.6712 104.687 22.091 108.703 12.4817C109.47 10.6469 109.285 8.23029 109.391 6.32253C100.569 6.32253 87.3338 3.88209 79.4401 8.40566C68.5613 14.6398 68.0326 37.8313 66.5859 49ZM112.562 6.32253L110.976 17.387H134.757L130.001 49H141.098C142.93 39.3082 151.246 16.4731 142.18 8.85692C135.717 3.42818 120.531 6.32253 112.562 6.32253Z" fill="#DE2E2A"/>
<path d="M149.023 6.32251L150.609 7.90315L149.023 6.32251Z" fill="#52192A"/>
<path d="M160.121 48.9999H171.219C173.708 29.8991 194.519 26.7037 194.999 6.32251H183.902C183.382 10.9816 182.508 15.002 178.784 18.2823C168.357 27.4632 159.367 17.225 161.707 6.32251C149.565 6.46598 144.809 15.7428 152.208 26.5404C154.671 30.1352 159.202 32.2181 160.609 36.5195C161.843 40.2901 160.424 45.133 160.121 48.9999Z" fill="#04102A"/>
<path d="M53.9023 7.90332L55.4877 9.48397L53.9023 7.90332ZM107.805 14.2259L109.39 15.8065L107.805 14.2259Z" fill="#52192A"/>
<path d="M193.414 15.8064C188.764 24.7377 179.563 27.6677 174.41 35.3901C171.921 39.1214 171.77 44.68 171.219 48.9999H194.999C194.999 38.8268 197.377 25.2255 193.414 15.8064Z" fill="white"/>
<path d="M71.3418 17.3872L72.9272 18.9679L71.3418 17.3872ZM149.025 22.1291L150.61 23.7098L149.025 22.1291Z" fill="#52192A"/>
<path d="M84.0248 23.7097L82.4395 33.1936C92.8456 36.2604 102.357 36.1614 103.049 23.7097H84.0248ZM112.561 23.7097L110.976 34.7742C121.657 34.7742 130.863 36.7217 131.586 23.7097H112.561Z" fill="#DE2E2A"/>
<path d="M4.75586 25.2903L6.34123 26.8709L4.75586 25.2903ZM39.6339 25.2903L41.2193 26.8709L39.6339 25.2903ZM64.9998 26.8709L66.5851 28.4516L64.9998 26.8709Z" fill="#52192A"/>
<path d="M0 30.0322V49H12.6829C8.50847 42.5936 5.18394 37.824 4.7561 30.0322H0Z" fill="white"/>
<path d="M82.4385 30.0322L84.0239 31.6129L82.4385 30.0322ZM38.0483 31.6129L39.6336 33.1935L38.0483 31.6129ZM101.463 31.6129L103.048 33.1935L101.463 31.6129ZM158.536 31.6129L160.121 33.1935L158.536 31.6129ZM52.3165 33.1935L53.9019 34.7742L52.3165 33.1935ZM82.4385 33.1935L84.0239 34.7742L82.4385 33.1935ZM68.1702 34.7742L69.7556 36.3548L68.1702 34.7742ZM142.682 34.7742L144.268 36.3548L142.682 34.7742ZM61.8287 41.0967L63.4141 42.6774L61.8287 41.0967ZM171.219 42.6774L172.804 44.258L171.219 42.6774ZM41.219 44.258L42.8044 45.8387L41.219 44.258ZM36.4629 47.4193L38.0483 49L36.4629 47.4193Z" fill="#52192A"/>
</g>
<defs>
<clipPath id="clip0_133_276">
<rect width="195" height="49" fill="white"/>
</clipPath>
</defs>
</svg>
