<svg width="496" height="496" viewBox="0 0 496 496" fill="none" xmlns="http://www.w3.org/2000/svg">
<path d="M286.092 388.864C286.092 388.864 363.329 392.475 412.185 305.189C461.041 217.903 403.555 137.61 314.751 120.26C225.947 102.91 181.704 37.7654 102.552 87.6333C23.4003 137.501 67.3856 403.079 286.092 388.864Z" fill="#FFC9B3"/>
<path opacity="0.4" d="M286.092 388.864C286.092 388.864 363.329 392.475 412.185 305.189C461.041 217.903 403.555 137.61 314.751 120.26C225.947 102.91 181.704 37.7654 102.552 87.6333C23.4003 137.501 67.3856 403.079 286.092 388.864Z" fill="white"/>
<path d="M248.009 427.77C350.789 427.77 434.109 422.605 434.109 416.233C434.109 409.862 350.789 404.696 248.009 404.696C145.23 404.696 61.9102 409.862 61.9102 416.233C61.9102 422.605 145.23 427.77 248.009 427.77Z" fill="#FF8E60"/>
<path opacity="0.7" d="M248.009 427.77C350.789 427.77 434.109 422.605 434.109 416.233C434.109 409.862 350.789 404.696 248.009 404.696C145.23 404.696 61.9102 409.862 61.9102 416.233C61.9102 422.605 145.23 427.77 248.009 427.77Z" fill="white"/>
<path d="M288.751 112.334L288.215 116.877L290.675 117.75C290.711 119.308 290.927 120.856 291.32 122.363L289.187 123.911L290.983 128.127L293.572 127.641C294.378 128.971 295.337 130.203 296.429 131.311L295.347 133.732L299.018 136.469L301.002 134.783C302.366 135.535 303.814 136.121 305.317 136.529L305.595 139.158L310.128 139.703L311.011 137.233C312.568 137.198 314.116 136.981 315.624 136.589L317.181 138.711L321.407 136.896L320.941 134.317C322.268 133.509 323.496 132.551 324.601 131.46L327.022 132.541L329.76 128.871L328.063 126.887C328.817 125.527 329.403 124.082 329.809 122.581L332.438 122.304L332.984 117.76L330.514 116.877C330.483 115.323 330.266 113.778 329.869 112.275L332.012 110.717L330.206 106.501L327.627 106.977C326.816 105.65 325.854 104.422 324.76 103.317L325.831 100.906L322.131 98.208L320.147 99.9044C318.79 99.1614 317.352 98.5756 315.862 98.1584L315.584 95.5296L311.041 94.994L310.158 97.4541C308.603 97.4925 307.059 97.7122 305.555 98.1088L303.998 95.976L299.782 97.7716L300.258 100.351C298.936 101.146 297.712 102.092 296.607 103.168L294.197 102.097L291.449 105.767L293.145 107.751C292.394 109.115 291.808 110.564 291.399 112.066L288.751 112.334ZM299.295 115.975C299.561 113.741 300.484 111.636 301.946 109.927C303.408 108.217 305.345 106.98 307.511 106.372C309.677 105.764 311.974 105.812 314.113 106.51C316.251 107.209 318.134 108.526 319.524 110.295C320.914 112.064 321.747 114.205 321.919 116.448C322.091 118.691 321.594 120.935 320.49 122.895C319.387 124.855 317.726 126.444 315.719 127.46C313.712 128.476 311.449 128.874 309.215 128.603V128.603C306.227 128.24 303.504 126.707 301.644 124.34C299.785 121.973 298.94 118.964 299.295 115.975Z" stroke="#263238" stroke-width="1.57112" stroke-linejoin="round"/>
<path d="M170.236 224.132L169.75 228.249L171.982 229.043C172.013 230.453 172.21 231.855 172.567 233.219L170.583 234.628L172.21 238.447L174.551 238.001C175.284 239.204 176.153 240.319 177.14 241.324L176.148 243.516L179.551 246.016L181.346 244.478C182.581 245.163 183.893 245.695 185.255 246.066L185.503 248.446L189.62 248.942L190.413 246.7C191.824 246.671 193.226 246.475 194.59 246.115L195.998 248.05L199.808 246.413L199.391 244.032C200.594 243.299 201.71 242.431 202.714 241.443L204.906 242.435L207.386 239.122L205.849 237.306C206.53 236.074 207.063 234.765 207.436 233.408L209.817 233.15L210.303 229.033L208.071 228.239C208.04 226.829 207.843 225.427 207.486 224.063L209.47 222.654L207.833 218.835L205.502 219.262C204.762 218.064 203.887 216.956 202.893 215.958L203.885 213.766L200.482 211.296L198.677 212.834C197.448 212.155 196.142 211.626 194.788 211.256L194.54 208.876L190.423 208.38L189.63 210.621C188.219 210.652 186.818 210.848 185.453 211.207L184.045 209.312L180.226 210.939L180.652 213.28C179.448 214.012 178.333 214.881 177.329 215.869L175.137 214.877L172.657 218.2L174.194 220.006C173.514 221.242 172.981 222.554 172.607 223.914L170.236 224.132ZM179.789 227.426C180.031 225.404 180.867 223.499 182.191 221.952C183.515 220.406 185.268 219.286 187.229 218.735C189.189 218.185 191.269 218.228 193.205 218.859C195.141 219.49 196.846 220.681 198.105 222.282C199.365 223.882 200.121 225.82 200.279 227.85C200.437 229.88 199.99 231.911 198.993 233.687C197.997 235.463 196.496 236.904 194.681 237.827C192.866 238.75 190.818 239.114 188.796 238.874C186.085 238.548 183.613 237.16 181.924 235.013C180.235 232.867 179.467 230.138 179.789 227.426Z" fill="#263238"/>
<path d="M380.014 325.128V315.793L374.806 314.613C374.365 311.466 373.553 308.382 372.386 305.427L376.354 301.766L371.671 293.632L366.553 295.249C364.593 292.752 362.349 290.491 359.866 288.513L361.483 283.345L353.379 278.673L349.758 282.571C346.812 281.382 343.735 280.546 340.592 280.081L339.402 274.824H330.067L328.876 280.042C325.729 280.479 322.645 281.292 319.69 282.462L316.03 278.494L307.945 283.157L309.522 288.275C307.026 290.232 304.765 292.472 302.787 294.951L297.628 293.354L292.966 301.429L296.874 305.07C295.686 308.013 294.851 311.086 294.385 314.226L289.127 315.426V324.761L294.335 325.951C294.782 329.094 295.594 332.173 296.755 335.127L292.787 338.798L297.46 346.902L302.569 345.325C304.533 347.816 306.784 350.066 309.274 352.031L307.677 357.199L315.792 361.872L319.413 357.904C322.342 359.095 325.402 359.934 328.529 360.404L329.72 365.661H339.064L340.245 360.453C343.395 360.001 346.481 359.182 349.441 358.013L353.101 361.981L361.206 357.309L359.628 352.2C362.128 350.246 364.388 348.005 366.364 345.524L371.522 347.121L376.195 339.006L372.276 335.375C373.464 332.428 374.303 329.352 374.776 326.209L380.014 325.128ZM363.874 320.307C363.874 326.103 362.156 331.768 358.936 336.587C355.716 341.406 351.139 345.162 345.785 347.38C340.43 349.598 334.538 350.178 328.854 349.048C323.169 347.917 317.948 345.126 313.85 341.028C309.751 336.93 306.961 331.708 305.83 326.024C304.699 320.339 305.279 314.447 307.497 309.093C309.715 303.738 313.471 299.162 318.29 295.942C323.109 292.722 328.775 291.003 334.57 291.003C342.342 291.003 349.796 294.091 355.291 299.586C360.787 305.082 363.874 312.535 363.874 320.307Z" fill="white"/>
<path d="M217.821 93.3969H193.775V98.9421H217.821V93.3969Z" fill="#2F5D8C"/>
<path d="M209.578 101.412H193.775V106.957H209.578V101.412Z" fill="#2F5D8C"/>
<path d="M202.872 109.428H193.775V114.973H202.872V109.428Z" fill="#2F5D8C"/>
<path opacity="0.2" d="M217.821 93.3969H193.775V98.9421H217.821V93.3969Z" fill="#FF8E60"/>
<path opacity="0.2" d="M209.578 101.412H193.775V106.957H209.578V101.412Z" fill="#FF8E60"/>
<path opacity="0.2" d="M202.872 109.428H193.775V114.973H202.872V109.428Z" fill="#FF8E60"/>
<path d="M160.178 154.821H152.023V171.527H160.178V154.821Z" fill="#2F5D8C"/>
<path d="M171.953 160.565H163.799V171.537H171.953V160.565Z" fill="#2F5D8C"/>
<path d="M183.738 165.218H175.584V171.537H183.738V165.218Z" fill="#2F5D8C"/>
<path opacity="0.2" d="M160.178 154.821H152.023V171.527H160.178V154.821Z" fill="black"/>
<path opacity="0.2" d="M171.953 160.565H163.799V171.537H171.953V160.565Z" fill="black"/>
<path opacity="0.2" d="M183.738 165.218H175.584V171.537H183.738V165.218Z" fill="black"/>
<path d="M248.932 184.175H150.198C148.843 184.177 147.5 183.913 146.247 183.396C144.995 182.879 143.856 182.12 142.897 181.163C141.938 180.206 141.177 179.069 140.658 177.817C140.138 176.565 139.871 175.223 139.871 173.868V92.3552C139.876 89.6233 140.964 87.0047 142.896 85.073C144.827 83.1412 147.446 82.0536 150.178 82.0483H248.912C250.267 82.047 251.608 82.3126 252.861 82.8299C254.113 83.3471 255.251 84.106 256.21 85.063C257.169 86.0201 257.93 87.1567 258.449 88.4079C258.969 89.6591 259.237 91.0004 259.238 92.3552V173.868C259.238 176.601 258.153 179.223 256.22 181.156C254.287 183.089 251.665 184.175 248.932 184.175ZM150.198 82.9907C147.705 82.996 145.316 83.9885 143.554 85.751C141.791 87.5134 140.799 89.9024 140.794 92.3949V173.908C140.799 176.4 141.791 178.789 143.554 180.552C145.316 182.314 147.705 183.306 150.198 183.312H248.932C251.424 183.306 253.813 182.314 255.576 180.552C257.338 178.789 258.331 176.4 258.336 173.908V92.3552C258.331 89.8627 257.338 87.4738 255.576 85.7113C253.813 83.9488 251.424 82.9563 248.932 82.9511L150.198 82.9907Z" fill="#263238"/>
<path d="M247.661 155.278H212.455V156.18H247.661V155.278Z" fill="#263238"/>
<path d="M247.661 159.057H212.455V159.96H247.661V159.057Z" fill="#263238"/>
<path d="M247.661 162.827H212.455V163.73H247.661V162.827Z" fill="#263238"/>
<path d="M247.661 166.596H212.455V167.499H247.661V166.596Z" fill="#263238"/>
<path d="M247.661 170.366H212.455V171.269H247.661V170.366Z" fill="#263238"/>
<path d="M186.147 93.7738H150.941V94.6765H186.147V93.7738Z" fill="#263238"/>
<path d="M186.147 97.5434H150.941V98.4461H186.147V97.5434Z" fill="#263238"/>
<path d="M186.147 101.313H150.941V102.216H186.147V101.313Z" fill="#263238"/>
<path d="M186.147 105.083H150.941V105.985H186.147V105.083Z" fill="#263238"/>
<path d="M186.147 108.852H150.941V109.755H186.147V108.852Z" fill="#263238"/>
<path d="M240.707 124.228L247.017 127.541L246.292 109.745L231.244 119.268L237.553 122.572L232.801 131.609C231.964 131.608 231.15 131.887 230.49 132.402L222.107 128.524V128.474C222.144 127.463 221.78 126.478 221.095 125.733C220.411 124.988 219.46 124.542 218.449 124.492C217.439 124.443 216.449 124.793 215.695 125.468C214.941 126.143 214.482 127.087 214.419 128.097C214.41 128.222 214.41 128.348 214.419 128.474C214.425 129.024 214.543 129.568 214.767 130.071L203.855 141.975C203.505 141.865 203.14 141.808 202.773 141.806C202.583 141.807 202.394 141.827 202.208 141.866L186.495 121.917C186.854 120.994 186.843 119.969 186.464 119.055C186.085 118.14 185.367 117.407 184.461 117.009C183.555 116.611 182.53 116.579 181.6 116.918C180.67 117.258 179.908 117.943 179.471 118.832C179.254 119.312 179.142 119.833 179.144 120.359C179.156 120.754 179.223 121.144 179.342 121.52L161.437 139.872C160.724 139.615 159.952 139.574 159.217 139.755C158.482 139.936 157.816 140.331 157.304 140.889C156.793 141.447 156.457 142.144 156.341 142.892C156.224 143.64 156.331 144.406 156.649 145.093C156.966 145.781 157.48 146.359 158.126 146.755C158.771 147.151 159.519 147.348 160.276 147.32C161.032 147.292 161.764 147.041 162.378 146.598C162.993 146.155 163.462 145.541 163.728 144.832C163.879 144.408 163.956 143.962 163.956 143.513C163.958 143.197 163.914 142.883 163.827 142.58L181.931 124C182.287 124.118 182.658 124.178 183.033 124.179C183.269 124.18 183.505 124.157 183.737 124.109L199.361 143.949C198.87 144.854 198.759 145.917 199.052 146.904C199.345 147.891 200.018 148.721 200.923 149.212C201.828 149.702 202.891 149.813 203.878 149.52C204.865 149.227 205.695 148.554 206.186 147.649C206.463 147.146 206.622 146.586 206.652 146.013C206.662 145.884 206.662 145.754 206.652 145.626C206.646 145.224 206.579 144.826 206.454 144.445L217.624 132.283C217.836 132.323 218.052 132.343 218.268 132.343C219.032 132.342 219.778 132.114 220.411 131.688L228.942 135.656C228.958 136.166 229.075 136.667 229.286 137.131C229.498 137.594 229.799 138.012 230.173 138.358C230.548 138.704 230.987 138.972 231.466 139.146C231.945 139.32 232.454 139.398 232.963 139.373C233.472 139.349 233.971 139.223 234.432 139.004C234.892 138.785 235.304 138.476 235.643 138.096C235.983 137.716 236.243 137.272 236.409 136.79C236.575 136.308 236.644 135.798 236.611 135.289C236.573 134.577 236.336 133.889 235.926 133.305L240.707 124.228Z" fill="#FF8E60"/>
<path d="M249.159 194.7C247.606 194.703 246.118 195.321 245.02 196.421C243.923 197.52 243.307 199.009 243.307 200.563V251.363C243.307 252.915 243.923 254.404 245.021 255.501C246.119 256.599 247.607 257.216 249.159 257.216H310.663C312.217 257.216 313.706 256.599 314.805 255.502C315.905 254.405 316.524 252.916 316.526 251.363V200.533C316.524 198.98 315.905 197.491 314.805 196.394C313.706 195.296 312.217 194.68 310.663 194.68L249.159 194.7Z" stroke="#263238" stroke-linejoin="round"/>
<path d="M252.831 201.624H248.158V202.249H252.831V201.624Z" fill="#263238"/>
<path d="M252.831 206.723H248.158V207.348H252.831V206.723Z" fill="#263238"/>
<path d="M252.831 211.822H248.158V212.447H252.831V211.822Z" fill="#263238"/>
<path d="M252.831 216.931H248.158V217.556H252.831V216.931Z" fill="#263238"/>
<path d="M252.651 206.723H247.979V207.348H252.651V206.723Z" fill="#263238"/>
<path d="M252.831 222.029H248.158V222.654H252.831V222.029Z" fill="#263238"/>
<path d="M283.472 249.627C287.906 249.718 292.267 248.493 296.003 246.105C299.739 243.717 302.683 240.274 304.462 236.212C306.241 232.15 306.775 227.652 305.996 223.286C305.217 218.921 303.16 214.885 300.087 211.689C297.013 208.493 293.06 206.28 288.728 205.332C284.397 204.383 279.881 204.741 275.753 206.36C271.625 207.979 268.069 210.787 265.538 214.427C263.006 218.068 261.611 222.377 261.529 226.811C261.418 232.745 263.666 238.481 267.78 242.759C271.894 247.037 277.538 249.507 283.472 249.627ZM284.256 211.395C287.395 211.459 290.444 212.451 293.019 214.248C295.593 216.045 297.577 218.564 298.719 221.488C299.862 224.413 300.111 227.61 299.436 230.676C298.762 233.742 297.193 236.539 294.928 238.713C292.664 240.887 289.805 242.341 286.714 242.891C283.624 243.44 280.439 243.061 277.564 241.801C274.689 240.541 272.252 238.456 270.561 235.811C268.871 233.166 268.003 230.079 268.067 226.94C268.153 222.732 269.906 218.73 272.942 215.815C275.978 212.9 280.048 211.31 284.256 211.395Z" fill="#2F5D8C"/>
<path d="M283.472 249.627C287.906 249.718 292.267 248.493 296.003 246.105C299.739 243.717 302.683 240.274 304.462 236.212C306.241 232.15 306.775 227.652 305.996 223.286C305.217 218.921 303.16 214.885 300.087 211.689C297.013 208.493 293.06 206.28 288.728 205.332C284.397 204.383 279.881 204.741 275.753 206.36C271.625 207.979 268.069 210.787 265.538 214.427C263.006 218.068 261.611 222.377 261.529 226.811C261.418 232.745 263.666 238.481 267.78 242.759C271.894 247.037 277.538 249.507 283.472 249.627ZM284.256 211.395C287.395 211.459 290.444 212.451 293.019 214.248C295.593 216.045 297.577 218.564 298.719 221.488C299.862 224.413 300.111 227.61 299.436 230.676C298.762 233.742 297.193 236.539 294.928 238.713C292.664 240.887 289.805 242.341 286.714 242.891C283.624 243.44 280.439 243.061 277.564 241.801C274.689 240.541 272.252 238.456 270.561 235.811C268.871 233.166 268.003 230.079 268.067 226.94C268.153 222.732 269.906 218.73 272.942 215.815C275.978 212.9 280.048 211.31 284.256 211.395Z" fill="#FF8E60"/>
<path d="M267.838 243.258C269.948 245.387 272.456 247.078 275.22 248.237C277.983 249.396 280.948 249.999 283.944 250.012C286.941 250.025 289.911 249.447 292.684 248.312C295.458 247.177 297.98 245.507 300.108 243.397C300.186 243.31 300.229 243.197 300.229 243.08C300.229 242.963 300.186 242.85 300.108 242.762L295.456 238.08C295.415 238.037 295.365 238.002 295.311 237.979C295.256 237.955 295.198 237.942 295.138 237.941C295.018 237.948 294.903 237.993 294.811 238.07C293.348 239.537 291.601 240.691 289.677 241.46C287.753 242.23 285.692 242.598 283.621 242.544H282.52C279.152 242.356 275.941 241.062 273.384 238.864C273.155 238.655 272.917 238.447 272.699 238.229C270.086 235.62 268.479 232.171 268.161 228.492C267.843 224.813 268.836 221.139 270.963 218.121C270.983 218.093 271 218.063 271.013 218.032C271.112 217.893 271.221 217.774 271.34 217.635C272.866 215.703 274.834 214.166 277.078 213.154C279.323 212.142 281.778 211.685 284.236 211.822C284.295 211.823 284.353 211.813 284.408 211.792C284.462 211.77 284.512 211.739 284.555 211.698C284.597 211.658 284.631 211.609 284.655 211.555C284.678 211.502 284.691 211.444 284.692 211.385L284.821 204.808C284.824 204.689 284.78 204.573 284.698 204.486C284.617 204.399 284.504 204.347 284.385 204.342C279.844 204.266 275.383 205.546 271.575 208.02C267.766 210.494 264.782 214.048 263.005 218.227C261.228 222.407 260.738 227.022 261.599 231.481C262.461 235.94 264.633 240.041 267.838 243.258Z" fill="#263238"/>
<path d="M284.396 204.352C290.579 204.359 296.506 206.82 300.875 211.196C305.244 215.572 307.696 221.503 307.693 227.686C307.689 233.87 305.231 239.798 300.857 244.169C296.484 248.54 290.554 250.996 284.371 250.996C278.188 250.996 272.257 248.54 267.884 244.169C263.511 239.798 261.052 233.87 261.049 227.686C261.046 221.503 263.498 215.572 267.867 211.196C272.235 206.82 278.163 204.359 284.346 204.352H284.396ZM283.483 249.161C287.826 249.25 292.099 248.049 295.76 245.71C299.42 243.371 302.305 239.999 304.05 236.021C305.794 232.042 306.319 227.635 305.559 223.358C304.798 219.081 302.786 215.125 299.777 211.991C296.769 208.858 292.898 206.687 288.655 205.753C284.412 204.819 279.988 205.165 275.942 206.746C271.895 208.327 268.409 211.072 265.923 214.635C263.437 218.198 262.064 222.418 261.976 226.761C261.859 232.584 264.059 238.215 268.092 242.417C272.124 246.619 277.66 249.048 283.483 249.171V249.161ZM284.267 210.929C287.488 210.994 290.617 212.014 293.259 213.858C295.901 215.702 297.936 218.288 299.108 221.289C300.28 224.289 300.536 227.571 299.843 230.717C299.151 233.863 297.54 236.734 295.216 238.965C292.892 241.196 289.959 242.688 286.787 243.252C283.615 243.815 280.347 243.426 277.396 242.132C274.445 240.839 271.945 238.699 270.21 235.985C268.475 233.27 267.585 230.101 267.651 226.88C267.739 222.562 269.539 218.455 272.655 215.464C275.771 212.472 279.948 210.841 284.267 210.929ZM283.622 242.584C286.664 242.646 289.657 241.804 292.221 240.166C294.786 238.527 296.806 236.165 298.028 233.377C299.25 230.59 299.617 227.503 299.084 224.507C298.551 221.511 297.142 218.74 295.034 216.545C292.927 214.35 290.215 212.829 287.243 212.175C284.271 211.521 281.172 211.763 278.337 212.87C275.503 213.977 273.06 215.9 271.319 218.396C269.577 220.892 268.615 223.848 268.553 226.89C268.474 230.968 270.016 234.91 272.841 237.851C275.667 240.792 279.544 242.49 283.622 242.574V242.584Z" fill="#263238"/>
<path d="M168.312 275.905V336.08" stroke="#263238" stroke-width="0.879169" stroke-linecap="round" stroke-linejoin="round"/>
<path d="M177.984 298.612H172.875V333.064H177.984V298.612Z" fill="#263238"/>
<path d="M185.285 312.669H180.176V333.054H185.285V312.669Z" fill="#2F5D8C"/>
<path d="M193.867 287.472H188.758V333.064H193.867V287.472Z" fill="white" stroke="#263238" stroke-width="0.879169" stroke-linejoin="round"/>
<path d="M208.111 280.895H203.002V333.054H208.111V280.895Z" fill="#263238"/>
<path d="M215.421 320.158H210.312V333.064H215.421V320.158Z" fill="#2F5D8C"/>
<path d="M224.003 302.262H218.895V333.064H224.003V302.262Z" fill="white" stroke="#263238" stroke-width="0.879169" stroke-linejoin="round"/>
<path d="M244.814 306.974H239.705V333.054H244.814V306.974Z" fill="#263238"/>
<path d="M252.126 286.738H247.018V333.054H252.126V286.738Z" fill="#2F5D8C"/>
<path d="M260.706 296.965H255.598V333.054H260.706V296.965Z" fill="white" stroke="#263238" stroke-width="0.879169" stroke-linejoin="round"/>
<path d="M162.826 325.088H165.683" stroke="#263238" stroke-width="0.879169" stroke-linecap="round" stroke-linejoin="round"/>
<path d="M162.826 317.658H165.683" stroke="#263238" stroke-width="0.879169" stroke-linecap="round" stroke-linejoin="round"/>
<path d="M162.826 310.238H165.683" stroke="#263238" stroke-width="0.879169" stroke-linecap="round" stroke-linejoin="round"/>
<path d="M162.826 302.808H165.683" stroke="#263238" stroke-width="0.879169" stroke-linecap="round" stroke-linejoin="round"/>
<path d="M162.826 295.378H165.683" stroke="#263238" stroke-width="0.879169" stroke-linecap="round" stroke-linejoin="round"/>
<path d="M162.826 287.948H165.683" stroke="#263238" stroke-width="0.879169" stroke-linecap="round" stroke-linejoin="round"/>
<path d="M162.826 280.518H165.683" stroke="#263238" stroke-width="0.879169" stroke-linecap="round" stroke-linejoin="round"/>
<path d="M164.93 333.064H264.288" stroke="#263238" stroke-width="0.879169" stroke-linecap="round" stroke-linejoin="round"/>
<path opacity="0.3" d="M185.285 312.669H180.176V333.054H185.285V312.669Z" fill="black"/>
<path opacity="0.3" d="M215.421 320.158H210.312V333.064H215.421V320.158Z" fill="black"/>
<path opacity="0.3" d="M252.126 286.738H247.018V333.054H252.126V286.738Z" fill="black"/>
<path d="M158.768 267.552C157.057 267.555 155.415 268.236 154.205 269.447C152.994 270.657 152.313 272.298 152.311 274.01V333.044C152.313 334.757 152.994 336.399 154.204 337.611C155.415 338.823 157.056 339.507 158.768 339.512H268.335C270.049 339.507 271.691 338.824 272.903 337.612C274.114 336.4 274.797 334.758 274.803 333.044V273.99C274.8 272.276 274.118 270.632 272.905 269.42C271.693 268.207 270.049 267.525 268.335 267.523L158.768 267.552Z" stroke="#263238" stroke-linejoin="round"/>
<path d="M72.0679 399.518C72.0679 399.518 74.3594 414.815 68.8141 416.382C63.2688 417.949 59.4199 415.886 58.7255 413.595C58.0311 411.303 62.9415 394.935 62.9415 394.935L72.0679 399.518Z" fill="white"/>
<path d="M168.52 402.901L192.626 408.615C192.626 408.615 194.451 409.607 194.253 411.244C194.054 412.88 183.053 417.077 179.968 417.602C176.883 418.128 159.076 420.449 156.547 418.277C154.017 416.104 159.364 398.784 159.364 398.784L168.52 402.901Z" fill="white"/>
<path d="M124.873 123.921C124.873 123.921 128.265 129.039 128.315 131.629C128.364 134.218 128.047 137.174 129.634 138.701C131.221 140.229 132.442 141.896 131.787 142.669C131.132 143.443 129.872 144.951 129.872 144.951C129.872 144.951 131.509 153.671 129.386 155.248C127.263 156.825 120.885 155.248 120.885 155.248V160.883C120.885 160.883 111.818 157.907 105.558 158.462L104.447 146.389C104.447 146.389 118.048 120.24 124.873 123.921Z" fill="white"/>
<path d="M180.642 159.593C180.642 159.593 179.829 153.403 182.845 149.673C182.845 149.673 179.234 149.058 179.67 147.749C180.107 146.439 185.622 148.155 185.622 148.155L184.134 145.179C184.134 145.179 178.926 143.453 179.571 141.836C180.216 140.219 187.854 144.197 187.854 144.197C187.854 144.197 183.321 140.408 183.956 138.83C184.59 137.253 189.203 137.283 191.663 145.457L192.913 143.9C192.913 143.9 193.36 134.595 194.639 134.089C194.639 134.089 196.623 135.18 196.623 140.527C196.623 140.527 198.607 142.917 197.348 144.941C196.088 146.965 193.122 151.518 190.602 153.224C188.082 154.931 188.092 161.587 188.092 161.587L180.642 159.593Z" fill="white"/>
<path d="M100.807 108.713L101.947 107.186C101.947 107.186 114.714 101.492 114.397 99.7159C114.08 97.9402 106.848 100.39 105.469 99.4481C105.469 99.4481 106.788 82.6436 105.469 82.098C104.15 81.5524 102.682 89.9844 102.682 89.9844C102.682 89.9844 100.826 81.3341 99.398 81.5821C97.9695 81.8301 98.5647 90.5101 98.5647 90.5101C98.5647 90.5101 95.8367 84.945 94.7753 85.4609C93.7138 85.9767 95.301 92.762 95.301 92.762C95.301 92.762 93.317 90.4308 92.5234 91.1351C92.7849 94.64 93.7462 98.057 95.3506 101.184L92.5929 105.846L100.807 108.713Z" fill="white"/>
<path d="M179.264 159.633L188.063 160.863C188.063 160.863 181.625 215.423 179.73 222.158C177.835 228.894 176.129 233.735 169.661 234.062C163.193 234.39 140.149 215.016 140.149 215.016L139.078 241.8L140.576 252.91C140.576 252.91 112.393 267.721 83.7341 254.835L84.3789 241.8L74.0522 182.181L65.9277 153.869L92.1463 104.16L101.65 109.12L84.8849 154.365L89.577 169.473L94.8247 167.37L100.628 159.97C100.628 159.97 110.469 154.861 122.918 161.954L124.902 168.164C124.902 168.164 139.504 169.265 164.156 203.439L179.264 159.633Z" fill="#2F5D8C"/>
<path opacity="0.2" d="M116.361 159.633L117.472 167.271C117.472 167.271 125.666 172.707 128.96 174.592C128.96 174.592 137.015 225.462 131.053 235.471L124.773 245.302C124.773 245.302 131.192 245.302 134.148 240.808C134.148 240.808 130.468 253.089 120.925 256.392C120.925 256.392 135.576 254.865 140.616 252.92L139.118 241.81L141.528 179.86C141.528 179.86 143.8 175.713 124.912 168.283L122.125 161.587L116.361 159.633Z" fill="black"/>
<path d="M124.873 124.615C124.873 124.615 127.948 129.119 128.315 131.628C128.682 134.138 127.591 136.906 129.634 138.701C131.678 140.497 132.61 141.677 131.787 142.669C130.963 143.661 129.872 144.951 129.872 144.951C129.872 144.951 130.706 153.452 129.386 155.248C128.067 157.044 120.885 155.248 120.885 155.248V160.883" stroke="#263238" stroke-linecap="round" stroke-linejoin="round"/>
<path d="M120.884 144.574C120.884 144.574 118.007 137.144 115.855 138.94C113.702 140.735 115.616 150.556 120.884 148.403" stroke="#263238" stroke-linecap="round" stroke-linejoin="round"/>
<path d="M120.1 142.848C120.1 142.848 123.522 142.57 121.359 134.545C119.197 126.52 123.879 127.601 128.909 125.319C133.938 123.038 135.138 118.852 134.057 116.342C132.976 113.832 131.18 112.503 124.831 113.703C124.831 113.703 117.887 105.678 111.182 114.546C111.182 114.546 96.0833 114.308 92.0161 121.49C87.9489 128.672 93.3355 147.005 101.242 153.115C109.148 159.226 116.876 154.335 118.483 148.592C118.483 148.592 113.096 145.685 115.854 138.979C115.854 138.94 118.364 138.047 120.1 142.848Z" fill="#263238"/>
<path d="M73.2676 177.657C73.2676 177.657 109.803 151.161 141.646 177.657L139.077 241.76L140.575 252.871C140.575 252.871 113.652 265.479 83.7332 254.795L84.378 241.76L73.2676 177.657Z" stroke="#263238" stroke-linecap="round" stroke-linejoin="round"/>
<path d="M94.3379 168.025L100.627 160.01C100.627 160.01 112.958 155.744 122.917 161.994L124.901 168.204" stroke="#263238" stroke-linecap="round" stroke-linejoin="round"/>
<path d="M141.646 177.657L173.46 214.242" stroke="#263238" stroke-linecap="round" stroke-linejoin="round"/>
<path d="M140.178 214.272C140.178 214.272 161.258 233.884 169.66 234.112C178.062 234.34 179.461 224.192 179.461 224.192L188.062 160.902L179.263 159.672L164.125 203.549" stroke="#263238" stroke-linecap="round" stroke-linejoin="round"/>
<path d="M187.914 160.704C187.914 160.704 189.015 153.552 191.882 151.925C194.749 150.298 198.152 143.989 197.06 142.173C195.969 140.358 192.636 146.261 189.63 147.391C186.625 148.522 184.184 154.077 183.768 156.488" stroke="#263238" stroke-linecap="round" stroke-linejoin="round"/>
<path d="M196.136 141.916C196.136 141.916 196.136 133.652 194.619 134.039C193.101 134.426 192.893 144.892 192.893 144.892" stroke="#263238" stroke-linecap="round" stroke-linejoin="round"/>
<path d="M191.783 145.953C191.783 145.953 190.791 141.32 188.063 139.059C185.335 136.797 183.629 138.017 183.936 138.781C184.244 139.545 188.896 145.725 188.787 147.828" stroke="#263238" stroke-linecap="round" stroke-linejoin="round"/>
<path d="M187.06 143.661C187.06 143.661 179.571 140.229 179.551 142.283C179.531 144.336 184.114 145.13 184.114 145.13L185.602 148.106C185.602 148.106 179.293 146.122 179.65 147.699C180.007 149.276 182.824 149.623 182.824 149.623C182.824 149.623 179.759 152.659 180.622 159.543" stroke="#263238" stroke-linecap="round" stroke-linejoin="round"/>
<path d="M136.24 253.615L138.155 267.027C138.155 267.027 155.783 319.91 158.461 330.247C161.14 340.583 162.677 363.975 163.421 374.698C164.165 385.422 170.365 403.466 170.365 403.466C170.365 403.466 169.601 410.748 156.576 409.597C156.576 409.597 151.21 388.14 145.466 375.492C139.722 362.844 138.879 343.659 138.879 343.659L110.905 292.313C110.905 292.313 105.181 322.212 101.332 333.312C97.3639 344.76 70.312 408.277 72.2067 403.823C72.2067 403.823 68.3776 406.125 60.3027 400.371C60.3027 400.371 66.0464 381.216 67.5741 370.869C69.1018 360.523 77.1568 336.764 77.1568 336.764C77.1568 336.764 79.0714 291.936 82.1168 278.137C82.1168 278.137 80.1328 262.94 84.3687 252.206C101.158 257.689 119.178 258.179 136.24 253.615Z" fill="#263238"/>
<path d="M95.5781 283.305L108.137 286.956L109.962 291.41" stroke="white" stroke-linecap="round" stroke-linejoin="round"/>
<path d="M156.854 408.029C156.854 408.029 155.158 416.531 156.546 418.277C157.281 419.189 159.463 419.021 160.514 419.041C162.935 419.09 165.365 418.932 167.786 418.773C172.627 418.455 177.587 418.505 182.259 417.007C186.195 415.824 189.955 414.119 193.439 411.938C195.344 410.668 193.439 408.615 193.439 408.615L170.375 403.437" stroke="#263238" stroke-linecap="round" stroke-linejoin="round"/>
<path d="M156.734 415.281C156.734 415.281 182.655 419.537 193.438 408.615" stroke="#263238" stroke-linecap="round" stroke-linejoin="round"/>
<path d="M61.3039 399.518C61.3039 399.518 58.3279 409.726 58.7644 412.94C59.2009 416.154 62.4249 416.908 66.1945 416.819C69.9641 416.729 71.5116 415.043 72.0671 412.493C72.6227 409.944 72.0671 401.7 72.0671 401.7" stroke="#263238" stroke-linecap="round" stroke-linejoin="round"/>
<path d="M58.7246 411.382L72.067 412.493" stroke="#263238" stroke-linecap="round" stroke-linejoin="round"/>
<path d="M93.554 104.477C94.6849 102.414 95.3495 101.154 95.3495 101.154C95.3495 101.154 91.6692 92.256 92.5918 91.1648C93.5143 90.0736 95.6471 93.1488 95.6471 93.1488C95.6471 93.1488 93.4647 86.0759 94.8436 85.4708C96.2225 84.8656 98.6827 91.4228 98.6827 91.4228C98.6827 91.4228 98.0378 81.9492 99.4663 81.5028C100.895 81.0564 102.611 90.5101 102.611 90.5101C102.611 90.5101 104.456 82.0979 105.587 82.0186C106.718 81.9392 105.587 99.3687 105.587 99.3687C107.869 100.49 114.574 97.7517 114.515 99.9639C114.455 102.176 101.619 107.265 101.619 107.265C101.394 107.556 101.198 107.869 101.034 108.197" stroke="#263238" stroke-linecap="round" stroke-linejoin="round"/>
<path d="M73.2685 177.657L65.9277 153.869L92.1463 104.19L101.65 109.16L84.8849 154.405L89.577 169.513" stroke="#263238" stroke-linecap="round" stroke-linejoin="round"/>
<path d="M74.1207 150.109C74.1207 150.109 83.5249 150.03 84.8839 154.405C80.7644 154.176 76.6835 155.305 73.2676 157.619" stroke="#263238" stroke-linecap="round" stroke-linejoin="round"/>
<path d="M105.191 158.978V152.084" stroke="#263238" stroke-linecap="round" stroke-linejoin="round"/>
<path opacity="0.2" d="M141.488 196.843L143.839 212.486C143.839 212.486 145.763 202.279 146.964 202.279C148.164 202.279 146.964 214.242 146.964 214.242C146.964 214.242 166.685 232.098 175.216 232.197C175.216 232.197 170.474 235.531 165.722 233.051C160.971 230.571 140.139 214.203 140.139 214.203L141.488 196.843Z" fill="black"/>
<path opacity="0.2" d="M99.9623 108.277L81.9277 152.084C81.9277 152.084 75.6484 151.984 73.2676 157.619L82.9098 155.893L86.1537 170.773L89.5761 169.473L84.8839 154.365L101.649 109.12L99.9623 108.277Z" fill="black"/>
<path d="M348.5 185.316L341.397 170.148L313.482 188.589L336.517 229.4L354.482 219.202L348.5 185.316Z" fill="white"/>
<path d="M371.504 316.508C371.504 316.508 376.018 329.036 376.683 335.137C377.347 341.238 375.314 366.931 375.75 374.014C376.187 381.097 380.016 402.236 380.016 402.236C380.016 402.236 361.237 415.886 355.275 411.492C355.275 411.492 368.509 400.778 369.848 396.512L365.562 367.556L361.307 333.312C361.307 333.312 360.225 326.16 358.718 322.479C357.21 318.799 357.438 310.992 357.438 310.992L371.504 316.508Z" fill="white"/>
<path d="M371.108 315.396C371.108 315.396 375.989 328.59 377.129 338.064C378.27 347.537 374.838 369.024 375.969 379.371C377.1 389.717 378.26 395.441 380.264 400.887L379.272 416.868H376.703L375.711 407.801C375.711 407.801 371.683 406.125 369.243 411.928C366.803 417.731 357.785 418.495 353.51 415.132C353.51 415.132 353.51 412.533 356.724 410.242C359.938 407.95 368.33 400.788 369.858 396.512C369.858 396.512 365.275 366.752 364.204 357.11C363.132 347.468 361.456 329.939 359.313 324.285C357.17 318.63 357.18 310.546 357.18 310.546" stroke="#263238" stroke-linecap="round" stroke-linejoin="round"/>
<path d="M379.282 397.891C379.282 397.891 366.694 411.581 356.129 411.492" stroke="#263238" stroke-linecap="round" stroke-linejoin="round"/>
<path d="M355.275 411.492C357.021 411.685 358.788 411.464 360.433 410.847C363.28 409.855 373.528 404.895 378.567 398.635L380.115 400.391L379.301 416.501L376.712 416.868L375.72 407.801C375.72 407.801 372.407 406.284 370.274 410.013C368.141 413.743 366.603 416.303 362.874 417.126C359.144 417.949 353.519 415.142 353.519 415.142C353.519 415.142 352.537 413.664 355.275 411.492Z" fill="#263238"/>
<path d="M380.283 316.934C381.466 321.284 382.904 325.56 384.588 329.741C386.84 334.909 406.293 387.178 406.293 387.178C406.293 387.178 407.772 415.469 416.055 415.38C424.338 415.291 415.727 395.61 415.727 395.61L410.688 384.827C410.688 384.827 408.764 353.152 406.383 341.506L396.244 314.196L380.283 316.934Z" fill="white"/>
<path d="M396.354 315.109C396.354 315.109 404.677 334.046 406.393 341.506C408.11 348.966 409.836 382.525 410.699 384.827C411.562 387.128 425.331 411.501 417.008 416.382C408.685 421.263 406.721 388.269 406.721 388.269C406.721 388.269 387.506 334.899 384.629 329.741C381.752 324.582 378.607 309.653 378.607 309.653L396.354 315.109Z" stroke="#263238" stroke-linecap="round" stroke-linejoin="round"/>
<path d="M418.625 403.873C418.625 403.873 418.049 410.48 415.867 411.412C413.684 412.345 408.863 404.895 408.863 404.895" stroke="#263238" stroke-linecap="round" stroke-linejoin="round"/>
<path d="M408.883 406.035C408.883 406.035 411.859 417.305 415.827 416.828C419.795 416.352 420.509 410.093 418.634 405.262C418.634 405.262 417.97 410.222 415.876 411.412C413.763 411.442 408.883 406.035 408.883 406.035Z" fill="#263238"/>
<path d="M373.756 216.603C373.756 216.603 383.785 230.293 390.739 252.315C397.693 274.338 396.979 316.517 396.979 316.517C396.979 316.517 371.097 324.84 346.01 314.266L350.603 219.232C350.603 219.232 366.743 219.53 373.756 216.603Z" fill="#263238"/>
<path d="M360.801 117.324C360.801 117.324 353.004 124.625 352.091 129.406C351.338 132.753 350.13 135.981 348.5 138.999C349.338 140.268 350.568 141.229 352.002 141.737C352.002 141.737 352.508 151.528 355.355 152.282L362.16 150.496L362.884 154.692L372.645 150.982V145.328L380.085 140.467L377.437 127.76L365.334 122.105L360.801 117.324Z" fill="white"/>
<path d="M350.554 218.468L349.691 204.739C349.691 204.739 343.342 192.835 345.356 188.51C347.578 183.758 360.93 166.16 360.93 166.16L359.62 156.557L378.33 148.542L379.222 156.557L376.961 158.234L379.47 163.611C379.47 163.611 379.629 162.013 383.974 170.118C388.319 178.223 404.687 207.06 405.977 212.596C407.266 218.131 380.522 237.634 371.495 242.237C371.495 242.237 370.453 240.005 359.73 248.189C357.002 247.712 353.232 245.262 352.428 243.744C351.625 242.227 355.514 238.616 355.514 238.616C355.514 238.616 357.855 234.191 361.991 237.733H366.396L391.603 214.272L378.826 195.573L373.756 216.573C373.756 216.573 357.359 221.553 350.554 218.468Z" fill="white"/>
<path d="M359.621 156.557L360.96 166.368L379.223 156.557L378.33 148.542L359.621 156.557Z" stroke="#263238" stroke-linecap="round" stroke-linejoin="round"/>
<path d="M360.96 166.368C360.96 166.368 344.344 186.694 344.79 190.702C345.236 194.71 349.691 204.739 349.691 204.739L350.603 219.222C350.603 219.222 364.045 219.589 373.756 216.603L378.826 195.603" stroke="#263238" stroke-linecap="round" stroke-linejoin="round"/>
<path d="M391.603 214.272L365.861 175.465C365.861 175.465 363.331 166.537 369.422 163.353C375.513 160.168 380.81 164.206 382.705 166.329C384.6 168.452 405.035 207.824 405.987 212.556C406.939 217.288 385.353 236.215 372.864 241.324C372.864 241.324 367.18 244.736 367.18 237.733L391.603 214.272Z" stroke="#263238" stroke-linecap="round" stroke-linejoin="round"/>
<path d="M379.223 163.611L376.812 157.857" stroke="#263238" stroke-linecap="round" stroke-linejoin="round"/>
<path d="M367.179 237.772H362.001C362.001 237.772 357.963 234.162 356.049 237.772C354.134 241.383 351.714 242.098 352.438 243.784C353.162 245.47 357.309 248.833 359.739 248.228C362.169 247.623 369.024 242.048 369.024 242.048" stroke="#263238" stroke-linecap="round" stroke-linejoin="round"/>
<path d="M358.936 119.893C358.936 119.893 352.855 125.21 352.18 128.156C351.506 131.103 351.793 136.092 348.5 138.999C348.5 138.999 348.669 141.38 352.002 141.737C352.002 141.737 353.708 151.131 355.355 152.282C357.001 153.433 367.08 148.235 371.028 146.092C372.035 145.401 372.769 144.38 373.102 143.205" stroke="#263238" stroke-linecap="round" stroke-linejoin="round"/>
<path d="M354.215 144.604C356.079 144.289 357.761 143.296 358.937 141.816" stroke="#263238" stroke-linecap="round" stroke-linejoin="round"/>
<path d="M354.215 131.013C354.215 131.013 356.615 129.615 357.935 131.936" stroke="#263238" stroke-linecap="round" stroke-linejoin="round"/>
<path d="M355.861 136.003C355.861 136.807 355.633 137.461 355.265 137.481C354.898 137.501 354.561 136.866 354.521 136.073C354.482 135.279 354.75 134.605 355.117 134.585C355.484 134.565 355.821 135.2 355.861 136.003Z" fill="#263238"/>
<path d="M362.16 150.496L362.964 155.129" stroke="#263238" stroke-linecap="round" stroke-linejoin="round"/>
<path d="M369.957 135.388C369.957 135.388 371.445 132.501 373.102 134.188C374.759 135.874 377.903 143.671 369.422 141.816C369.422 141.816 368.856 146.578 373.102 147.768C377.348 148.959 385.413 142.392 385.681 131.192C385.948 119.992 375.136 112.433 369.422 114.596C369.422 114.596 361.138 101.611 352.925 107.146C344.711 112.681 350.246 121.203 348.5 123.127C346.754 125.052 343.025 123.246 342.906 128.414C342.786 133.583 351.427 133.057 351.427 133.057L352.468 127.363L359.621 119.893C359.621 119.893 357.934 125.29 360.801 129.982C363.39 134.208 369.957 135.388 369.957 135.388Z" fill="#263238"/>
<path d="M385.679 131.192C385.679 131.192 389.647 132.085 389.211 137.452C388.775 142.818 379.817 156.012 380.491 163.611L403.615 206.703C403.615 206.703 414.021 204.719 413.535 194.006C413.049 183.292 400.351 174.265 402.801 166.368C405.252 158.472 414.874 138.364 401.244 126.837C387.614 115.31 366.365 132.978 366.365 132.978L376.771 129.625L385.679 131.192Z" fill="#263238"/>
<path d="M347.607 184.433L341.397 170.148L313.482 188.589L336.517 229.4L350.484 221.712" stroke="#263238" stroke-linecap="round" stroke-linejoin="round"/>
<path d="M322.173 208.776C322.173 208.776 320.665 205.661 322.679 203.945C324.693 202.229 331.607 197.14 331.607 198.39C331.653 198.694 331.634 199.003 331.552 199.299C331.47 199.595 331.326 199.87 331.131 200.106C329.147 202.765 324.395 207.05 324.703 207.397C324.703 207.397 333.373 201.644 334.206 202.189C334.414 202.328 334.295 203.072 333.571 203.797C331.195 205.911 328.687 207.873 326.062 209.669C326.062 209.669 335.208 206.128 336.388 206.693C336.726 206.852 336.656 207.368 335.595 208.013C332.939 209.456 330.207 210.754 327.411 211.901L329.702 215.73C329.702 215.73 325.377 216.484 322.173 208.776Z" fill="white" stroke="#263238" stroke-linecap="round" stroke-linejoin="round"/>
<path d="M372.01 144.604L372.645 150.982" stroke="#263238" stroke-linejoin="round"/>
</svg>
