<svg width="496" height="496" viewBox="0 0 496 496" fill="none" xmlns="http://www.w3.org/2000/svg">
<path d="M329.85 63.3193C308.205 75.6995 292.938 96.5216 274.437 113.237C251.426 133.945 223.419 148.305 193.173 154.901C168.373 160.268 142.462 160.347 118.564 168.789C71.9403 185.147 40.0078 233.695 39.2043 283.057C38.4008 332.419 66.4843 380.273 107.761 407.335C121.819 416.556 137.209 423.565 153.393 428.117C183.749 436.659 215.939 436.282 247.306 433.018C301.489 427.373 358.291 396.602 392.446 353.221C407.67 333.833 420.537 312.704 430.776 290.279C447.692 253.406 457.299 213.604 459.068 173.074C460.507 138.354 459.068 99.8646 431.52 74.5587C403.973 49.2528 362.14 44.8384 329.85 63.3193Z" fill="#2F5D8C"/>
<path d="M329.85 63.3193C308.205 75.6995 292.938 96.5216 274.437 113.237C251.426 133.945 223.419 148.305 193.173 154.901C168.373 160.268 142.462 160.347 118.564 168.789C71.9403 185.147 40.0078 233.695 39.2043 283.057C38.4008 332.419 66.4843 380.273 107.761 407.335C121.819 416.556 137.209 423.565 153.393 428.117C183.749 436.659 215.939 436.282 247.306 433.018C301.489 427.373 358.291 396.602 392.446 353.221C407.67 333.833 420.537 312.704 430.776 290.279C447.692 253.406 457.299 213.604 459.068 173.074C460.507 138.354 459.068 99.8646 431.52 74.5587C403.973 49.2528 362.14 44.8384 329.85 63.3193Z" fill="#FFDDCF"/>
<path d="M272.899 460.834C371.148 460.834 450.795 439.382 450.795 412.92C450.795 386.458 371.148 365.006 272.899 365.006C174.65 365.006 95.0039 386.458 95.0039 412.92C95.0039 439.382 174.65 460.834 272.899 460.834Z" fill="#2F5D8C"/>
<path d="M272.899 460.834C371.148 460.834 450.795 439.382 450.795 412.92C450.795 386.458 371.148 365.006 272.899 365.006C174.65 365.006 95.0039 386.458 95.0039 412.92C95.0039 439.382 174.65 460.834 272.899 460.834Z" fill="#FFDDCF"/>
<path d="M294.584 67.7535H85.4409C80.5375 67.7535 76.5625 71.7285 76.5625 76.6319V193.876C76.5625 198.78 80.5375 202.755 85.4409 202.755H294.584C299.488 202.755 303.463 198.78 303.463 193.876V76.6319C303.463 71.7285 299.488 67.7535 294.584 67.7535Z" fill="white"/>
<path d="M303.463 76.632V80.1437H76.5625V76.632C76.5625 74.2727 77.4963 72.0093 79.1599 70.3364C80.8235 68.6635 83.0816 67.7171 85.4409 67.704H294.624C295.791 67.7079 296.946 67.9421 298.022 68.3933C299.099 68.8444 300.076 69.5036 300.897 70.333C301.718 71.1625 302.367 72.1458 302.808 73.2268C303.248 74.3077 303.471 75.4649 303.463 76.632Z" fill="#2F5D8C"/>
<path d="M294.584 67.7535H85.4409C80.5375 67.7535 76.5625 71.7285 76.5625 76.6319V193.876C76.5625 198.78 80.5375 202.755 85.4409 202.755H294.584C299.488 202.755 303.463 198.78 303.463 193.876V76.6319C303.463 71.7285 299.488 67.7535 294.584 67.7535Z" stroke="#263238" stroke-linecap="round" stroke-linejoin="round"/>
<path d="M303.463 76.632V80.1437H76.5625V76.632C76.5625 74.2727 77.4963 72.0093 79.1599 70.3364C80.8235 68.6635 83.0816 67.7171 85.4409 67.704H294.624C295.791 67.7079 296.946 67.9421 298.022 68.3933C299.099 68.8444 300.076 69.5036 300.897 70.333C301.718 71.1625 302.367 72.1458 302.808 73.2268C303.248 74.3077 303.471 75.4649 303.463 76.632V76.632Z" stroke="#263238" stroke-linecap="round" stroke-linejoin="round"/>
<path d="M102.047 73.9436C102.049 74.3934 101.918 74.8335 101.669 75.2084C101.421 75.5833 101.067 75.876 100.652 76.0495C100.237 76.2229 99.7798 76.2693 99.3385 76.1828C98.8972 76.0963 98.4915 75.8807 98.1728 75.5634C97.8541 75.2461 97.6367 74.8413 97.5483 74.4004C97.4598 73.9595 97.5042 73.5022 97.6759 73.0865C97.8475 72.6709 98.1387 72.3155 98.5125 72.0654C98.8862 71.8154 99.3258 71.6819 99.7756 71.6819C100.376 71.6819 100.953 71.9199 101.378 72.3437C101.804 72.7676 102.045 73.3429 102.047 73.9436Z" fill="#263238"/>
<path d="M113.901 73.9436C113.903 74.3934 113.771 74.8335 113.523 75.2084C113.274 75.5833 112.92 75.876 112.505 76.0495C112.09 76.2229 111.633 76.2693 111.192 76.1828C110.751 76.0963 110.345 75.8807 110.026 75.5634C109.708 75.2461 109.49 74.8413 109.402 74.4004C109.313 73.9595 109.358 73.5022 109.529 73.0865C109.701 72.6709 109.992 72.3155 110.366 72.0654C110.74 71.8154 111.179 71.6819 111.629 71.6819C112.23 71.6819 112.806 71.9199 113.232 72.3437C113.658 72.7676 113.898 73.3429 113.901 73.9436Z" fill="#263238"/>
<path d="M123.485 76.2154C124.739 76.2154 125.756 75.1983 125.756 73.9437C125.756 72.6891 124.739 71.672 123.485 71.672C122.23 71.672 121.213 72.6891 121.213 73.9437C121.213 75.1983 122.23 76.2154 123.485 76.2154Z" fill="#263238"/>
<path d="M157.827 89.9744H93.6742C91.6525 89.9744 90.0137 91.6132 90.0137 93.6348V124.496C90.0137 126.518 91.6525 128.156 93.6742 128.156H157.827C159.848 128.156 161.487 126.518 161.487 124.496V93.6348C161.487 91.6132 159.848 89.9744 157.827 89.9744Z" stroke="#263238" stroke-linecap="round" stroke-linejoin="round"/>
<path d="M94.2207 123.355H156.191" stroke="#263238" stroke-linecap="round" stroke-linejoin="round"/>
<path d="M106.014 116.064H98.8223V123.256H106.014V116.064Z" fill="#2F5D8C" stroke="#263238" stroke-miterlimit="10"/>
<path d="M116.54 106.61H109.348V123.355H116.54V106.61Z" fill="#2F5D8C" stroke="#263238" stroke-miterlimit="10"/>
<path d="M128.395 109.487H121.203V123.524H128.395V109.487Z" fill="#2F5D8C" stroke="#263238" stroke-miterlimit="10"/>
<path d="M140.854 95.5098H133.662V123.038H140.854V95.5098Z" fill="#2F5D8C" stroke="#263238" stroke-miterlimit="10"/>
<path d="M153.303 95.7279H146.111V123.256H153.303V95.7279Z" fill="#2F5D8C" stroke="#263238" stroke-miterlimit="10"/>
<path d="M250.104 130.13C261.209 130.13 270.212 121.128 270.212 110.023C270.212 98.9174 261.209 89.9148 250.104 89.9148C238.999 89.9148 229.996 98.9174 229.996 110.023C229.996 121.128 238.999 130.13 250.104 130.13Z" fill="#2F5D8C" stroke="#263238" stroke-miterlimit="10"/>
<path opacity="0.5" d="M251.749 122.562V124.625H248.377V122.562C246.991 122.226 245.766 121.419 244.912 120.279C244.057 119.138 243.627 117.735 243.694 116.312V115.379L247.514 114.963V115.955C247.514 117.869 248.506 119.03 250.063 119.03C250.401 119.058 250.741 119.013 251.06 118.897C251.379 118.781 251.669 118.598 251.91 118.359C252.151 118.121 252.338 117.833 252.458 117.516C252.577 117.198 252.627 116.859 252.603 116.52C252.603 114.685 250.886 113.108 248.863 111.431C246.462 109.447 244.071 107.086 244.071 103.753C244.071 100.42 245.639 98.1682 248.377 97.4937V95.4204H251.749V97.4739C254.517 98.1186 256.124 100.45 256.124 103.773V104.448L252.305 104.854V104.16C252.305 102.176 251.521 101.085 250.132 101.085C248.744 101.085 247.96 101.948 247.96 103.594C247.96 105.43 249.726 106.967 251.71 108.683C254.071 110.667 256.501 113.028 256.501 116.362C256.559 117.788 256.116 119.189 255.248 120.322C254.379 121.455 253.142 122.247 251.749 122.562Z" fill="#FF8E60"/>
<path d="M88.3477 147.659H94.2203" stroke="#263238" stroke-linecap="round" stroke-linejoin="round"/>
<path d="M88.3477 159.008H94.2203" stroke="#263238" stroke-linecap="round" stroke-linejoin="round"/>
<path d="M88.3477 170.366H94.2203" stroke="#263238" stroke-linecap="round" stroke-linejoin="round"/>
<path d="M88.3477 181.714H94.2203" stroke="#263238" stroke-linecap="round" stroke-linejoin="round"/>
<path d="M107.166 190.285V185.722" stroke="#263238" stroke-linecap="round" stroke-linejoin="round"/>
<path d="M116.471 190.285V185.722" stroke="#263238" stroke-linecap="round" stroke-linejoin="round"/>
<path d="M125.775 190.285V185.722" stroke="#263238" stroke-linecap="round" stroke-linejoin="round"/>
<path d="M135.09 190.285V185.722" stroke="#263238" stroke-linecap="round" stroke-linejoin="round"/>
<path d="M144.395 190.285V185.722" stroke="#263238" stroke-linecap="round" stroke-linejoin="round"/>
<path d="M153.701 190.285V185.722" stroke="#263238" stroke-linecap="round" stroke-linejoin="round"/>
<path d="M163.006 190.285V185.722" stroke="#263238" stroke-linecap="round" stroke-linejoin="round"/>
<path d="M172.32 190.285V185.722" stroke="#263238" stroke-linecap="round" stroke-linejoin="round"/>
<path d="M181.625 190.285V185.722" stroke="#263238" stroke-linecap="round" stroke-linejoin="round"/>
<path d="M190.93 190.285V185.722" stroke="#263238" stroke-linecap="round" stroke-linejoin="round"/>
<path d="M200.234 190.285V185.722" stroke="#263238" stroke-linecap="round" stroke-linejoin="round"/>
<path d="M209.551 190.285V185.722" stroke="#263238" stroke-linecap="round" stroke-linejoin="round"/>
<path d="M218.855 190.285V185.722" stroke="#263238" stroke-linecap="round" stroke-linejoin="round"/>
<path d="M228.16 190.285V185.722" stroke="#263238" stroke-linecap="round" stroke-linejoin="round"/>
<path d="M237.465 190.285V185.722" stroke="#263238" stroke-linecap="round" stroke-linejoin="round"/>
<path d="M246.422 190.285V185.722" stroke="#263238" stroke-linecap="round" stroke-linejoin="round"/>
<path d="M255.381 190.285V185.722" stroke="#263238" stroke-linecap="round" stroke-linejoin="round"/>
<path d="M264.328 190.285V185.722" stroke="#263238" stroke-linecap="round" stroke-linejoin="round"/>
<path d="M288.016 140.715V184.82C288.016 187.845 284.941 190.285 281.152 190.285H95.2311C94.099 190.326 92.973 190.104 91.9406 189.638C90.9083 189.171 89.9975 188.473 89.2791 187.597C88.6585 186.802 88.3106 185.828 88.2871 184.82V140.715C88.2871 137.739 91.3623 135.249 95.1517 135.249H281.152C284.941 135.249 288.016 137.69 288.016 140.715Z" stroke="#2F5D8C" stroke-linecap="round" stroke-linejoin="round"/>
<path d="M231.434 55.294L172.083 135.249L149.386 165.823L124.586 150.03L94.2403 190.285H93.8038C92.8523 190.286 91.9172 190.039 91.0907 189.567C90.2643 189.096 89.5753 188.417 89.0918 187.597L123.187 142.352L147.987 158.115L164.96 135.299L226.851 51.9708L231.434 55.294Z" fill="#263238"/>
<path d="M216.375 56.3059L238.189 43.0825L232.158 65.958L228.309 55.3734L216.375 56.3059Z" fill="#263238"/>
<path d="M422.821 308.036H73.9445L34.8398 342.806" stroke="#263238" stroke-linecap="round" stroke-linejoin="round"/>
<path d="M74.1621 283.692V216.087" stroke="#263238" stroke-linecap="round" stroke-linejoin="round"/>
<path d="M74.1621 304.108V291.033" stroke="#263238" stroke-linecap="round" stroke-linejoin="round"/>
<path d="M401.82 143.562C401.82 143.562 401.82 139.475 396.096 133.761C390.372 128.047 386.701 124.774 386.701 124.774C386.701 124.774 383.835 134.168 389.152 139.892C393.057 143.924 397.295 147.621 401.82 150.943V143.562Z" fill="#2F5D8C"/>
<path d="M393.517 169.086C393.517 169.086 393.517 164.999 387.793 159.276C382.069 153.552 378.399 150.288 378.399 150.288C378.399 150.288 375.542 159.682 380.849 165.406C384.759 169.436 388.996 173.136 393.517 176.467V169.086Z" fill="#2F5D8C"/>
<path d="M401.453 150.526C401.453 150.526 401.89 146.459 408.179 141.37C414.468 136.281 418.476 133.434 418.476 133.434C418.476 133.434 420.321 143.106 414.439 148.205C410.129 151.793 405.526 155.015 400.68 157.837L401.453 150.526Z" fill="#2F5D8C"/>
<path d="M391.424 180.663C391.424 180.663 392.287 176.695 399.072 172.271C405.858 167.846 410.133 165.446 410.133 165.446C410.133 165.446 410.956 175.237 404.598 179.721C399.937 182.836 395.023 185.554 389.906 187.845L391.424 180.663Z" fill="#2F5D8C"/>
<path d="M393.318 213.508C393.318 213.508 393.318 209.421 399.032 203.707C404.746 197.993 408.427 194.72 408.427 194.72C408.427 194.72 411.293 204.124 405.976 209.838C402.077 213.875 397.842 217.576 393.318 220.899V213.508Z" fill="#2F5D8C"/>
<path d="M393.219 221.534C393.219 221.534 393.795 217.486 388.944 211.018C384.093 204.55 380.929 200.781 380.929 200.781C380.929 200.781 376.782 209.709 381.216 216.097C384.513 220.635 388.183 224.889 392.188 228.815L393.219 221.534Z" fill="#2F5D8C"/>
<path d="M387.574 245.292C387.574 245.292 387.574 241.215 393.298 235.491C399.022 229.767 402.692 226.563 402.692 226.563C402.692 226.563 405.559 235.957 400.242 241.671C396.337 245.707 392.099 249.407 387.574 252.732V245.292Z" fill="#2F5D8C"/>
<path d="M391.394 266.848C391.394 266.848 390.402 262.88 394.459 255.936C398.517 248.992 401.274 244.875 401.274 244.875C401.274 244.875 406.413 253.248 402.733 260.122C399.972 265.008 396.806 269.654 393.269 274.01L391.394 266.848Z" fill="#2F5D8C"/>
<path d="M402.335 142.55C402.046 146.802 401.523 151.034 400.767 155.228C398.505 166.914 392.831 174.453 390.589 184.988C388.347 195.523 394.825 209.143 393.089 222.684C391.353 236.225 386.066 243.774 387.554 252.821C389.042 261.868 396.978 286.351 396.978 286.351" stroke="#263238" stroke-width="1.17749" stroke-linecap="round" stroke-linejoin="round"/>
<path d="M401.402 153.244L407.563 148.502" stroke="#263238" stroke-width="1.17749" stroke-linecap="round" stroke-linejoin="round"/>
<path d="M401.681 147.798L399.111 143.205" stroke="#263238" stroke-width="1.17749" stroke-linecap="round" stroke-linejoin="round"/>
<path d="M390.938 184.512C390.938 184.512 396.096 180.633 401.403 176.765" stroke="#263238" stroke-width="1.17749" stroke-linecap="round" stroke-linejoin="round"/>
<path d="M393.516 176.417C393.516 176.417 389.211 167.985 384.34 162.39" stroke="#263238" stroke-width="1.17749" stroke-linecap="round" stroke-linejoin="round"/>
<path d="M393.516 219.321C396.471 213.893 400.197 208.921 404.576 204.56" stroke="#263238" stroke-width="1.17749" stroke-linecap="round" stroke-linejoin="round"/>
<path d="M392.514 225.055C390.932 221.364 389.048 217.811 386.88 214.431C383.904 209.987 383.428 209.411 383.428 209.411" stroke="#263238" stroke-width="1.17749" stroke-linecap="round" stroke-linejoin="round"/>
<path d="M387.574 252.811C388.884 249.563 390.44 246.419 392.227 243.407C394.011 240.603 396.022 237.948 398.238 235.471" stroke="#263238" stroke-width="1.17749" stroke-linecap="round" stroke-linejoin="round"/>
<path d="M393.259 273.961C392.959 270.861 393.494 267.738 394.806 264.914C396.959 260.757 399.389 255.301 400.401 253.158" stroke="#263238" stroke-width="1.17749" stroke-linecap="round" stroke-linejoin="round"/>
<path d="M364.362 198.142C364.362 198.142 363.915 195.593 366.881 191.377C369.848 187.161 371.841 184.71 371.841 184.71C371.841 184.71 374.649 190.285 371.941 194.452C369.929 197.401 367.672 200.175 365.195 202.745L364.362 198.142Z" fill="#2F5D8C"/>
<path d="M372.336 213.28C372.336 213.28 371.89 210.711 374.856 206.505C377.822 202.299 379.816 199.848 379.816 199.848C379.816 199.848 382.623 205.433 379.915 209.59C377.906 212.54 375.649 215.315 373.17 217.883L372.336 213.28Z" fill="#2F5D8C"/>
<path d="M365.344 202.467C365.344 202.467 364.649 199.967 360.136 197.507C355.622 195.047 352.815 193.638 352.815 193.638C352.815 193.638 352.706 199.858 356.961 202.467C360.052 204.25 363.288 205.77 366.633 207.011L365.344 202.467Z" fill="#2F5D8C"/>
<path d="M374.906 220.274C374.906 220.274 373.914 217.863 369.192 215.849C364.47 213.836 361.504 212.774 361.504 212.774C361.504 212.774 362.049 218.994 366.543 221.117C369.806 222.564 373.184 223.735 376.642 224.619L374.906 220.274Z" fill="#2F5D8C"/>
<path d="M377.287 241.056C377.287 241.056 376.841 238.497 372.635 235.531C368.429 232.564 365.76 230.908 365.76 230.908C365.76 230.908 364.987 237.128 368.945 240.124C371.829 242.219 374.886 244.067 378.081 245.649L377.287 241.056Z" fill="#2F5D8C"/>
<path d="M378.209 246.105C378.209 246.105 377.406 243.635 379.747 239.052C382.088 234.469 383.715 231.761 383.715 231.761C383.715 231.761 387.286 236.88 385.203 241.393C383.614 244.596 381.763 247.662 379.668 250.559L378.209 246.105Z" fill="#2F5D8C"/>
<path d="M385.393 266.769C385.393 266.769 385.691 264.19 389.718 260.985C393.746 257.781 396.315 256.025 396.315 256.025C396.315 256.025 397.446 262.176 393.666 265.41C390.906 267.667 387.963 269.691 384.867 271.461L385.393 266.769Z" fill="#2F5D8C"/>
<path d="M384.33 260.4C384.33 260.4 383.884 257.831 379.678 254.865C375.472 251.899 372.813 250.252 372.813 250.252C372.813 250.252 372.04 256.472 375.988 259.468C378.877 261.562 381.936 263.41 385.134 264.993L384.33 260.4Z" fill="#2F5D8C"/>
<path d="M384.27 274.328C384.27 274.328 384.499 271.729 381.175 267.8C377.852 263.872 375.7 261.581 375.7 261.581C375.7 261.581 373.378 267.384 376.444 271.302C378.708 274.065 381.196 276.637 383.884 278.99L384.27 274.328Z" fill="#2F5D8C"/>
<path d="M363.916 197.547C364.562 200.184 365.353 202.784 366.287 205.334C368.965 212.407 373.33 216.524 375.889 222.892C378.449 229.261 375.889 238.497 378.419 246.8C380.949 255.103 385.115 259.239 385.145 265.102C385.175 270.965 382.913 287.164 382.913 287.164" stroke="#263238" stroke-width="1.17749" stroke-linecap="round" stroke-linejoin="round"/>
<path d="M365.672 204.164L361.297 201.872" stroke="#263238" stroke-width="1.17749" stroke-linecap="round" stroke-linejoin="round"/>
<path d="M364.896 200.781L366.017 197.626" stroke="#263238" stroke-width="1.17749" stroke-linecap="round" stroke-linejoin="round"/>
<path d="M375.631 222.625C375.631 222.625 371.97 220.76 368.23 218.905" stroke="#263238" stroke-width="1.17749" stroke-linecap="round" stroke-linejoin="round"/>
<path d="M373.131 217.883C374.207 214.487 375.626 211.21 377.367 208.102" stroke="#263238" stroke-width="1.17749" stroke-linecap="round" stroke-linejoin="round"/>
<path d="M377.793 244.746C375.352 241.664 372.479 238.951 369.262 236.691" stroke="#263238" stroke-width="1.17749" stroke-linecap="round" stroke-linejoin="round"/>
<path d="M379.043 248.238C379.622 245.759 380.409 243.334 381.394 240.987C382.773 237.862 383.011 237.455 383.011 237.455" stroke="#263238" stroke-width="1.17749" stroke-linecap="round" stroke-linejoin="round"/>
<path d="M384.955 269.526C386.375 267.763 387.948 266.13 389.657 264.646C390.745 263.84 391.767 262.947 392.713 261.977" stroke="#263238" stroke-width="1.17749" stroke-linecap="round" stroke-linejoin="round"/>
<path d="M385.144 265.102C383.958 263.21 382.632 261.409 381.176 259.716C379.751 258.16 378.202 256.723 376.543 255.42" stroke="#263238" stroke-width="1.17749" stroke-linecap="round" stroke-linejoin="round"/>
<path d="M383.904 278.99C383.746 277.005 383.061 275.097 381.92 273.465C380.115 271.084 377.952 267.929 377.139 266.689" stroke="#263238" stroke-width="1.17749" stroke-linecap="round" stroke-linejoin="round"/>
<path d="M402.93 315.099H376.88C376.362 315.099 375.865 314.897 375.494 314.535C375.124 314.174 374.909 313.682 374.896 313.165L371.156 284.337H408.574L404.835 313.165C404.822 313.669 404.619 314.149 404.265 314.509C403.911 314.868 403.434 315.079 402.93 315.099Z" fill="#263238"/>
<path d="M408.277 289.208H371.196C370.424 289.21 369.683 288.907 369.134 288.364C368.586 287.821 368.275 287.083 368.27 286.311C368.282 285.541 368.593 284.805 369.137 284.259C369.681 283.713 370.416 283.4 371.186 283.385H408.277C408.661 283.383 409.041 283.458 409.396 283.604C409.751 283.75 410.074 283.964 410.346 284.235C410.617 284.506 410.833 284.828 410.98 285.183C411.128 285.537 411.203 285.917 411.203 286.301C411.202 286.684 411.125 287.063 410.978 287.416C410.83 287.77 410.614 288.091 410.342 288.36C410.07 288.63 409.748 288.844 409.394 288.989C409.039 289.135 408.66 289.209 408.277 289.208Z" fill="#263238"/>
<path d="M324.682 173.908C324.68 182.049 321.921 189.95 316.853 196.321C311.785 202.693 304.709 207.16 296.777 208.995H296.668C295.725 209.203 294.783 209.391 293.811 209.53C292.105 209.773 290.385 209.896 288.662 209.897C279.247 209.864 270.219 206.144 263.512 199.536C256.804 192.928 252.951 183.957 252.778 174.543C252.604 165.129 256.123 156.021 262.582 149.17C269.04 142.319 277.925 138.269 287.333 137.888C287.66 137.888 288.007 137.888 288.325 137.888C288.43 137.878 288.537 137.878 288.642 137.888C288.764 137.878 288.887 137.878 289.009 137.888C293.869 137.919 298.67 138.949 303.116 140.914C309.528 143.723 314.982 148.339 318.812 154.199C322.642 160.058 324.682 166.907 324.682 173.908Z" fill="#2F5D8C"/>
<path opacity="0.4" d="M303.137 140.923C261.543 138.761 261.344 184.939 261.344 184.939C261.344 184.939 254.995 169.87 265.362 153.195C271.155 143.86 281.234 139.743 289.031 137.918C293.889 137.943 298.691 138.966 303.137 140.923Z" fill="white"/>
<path d="M324.682 173.908C324.682 182.069 321.91 189.988 316.82 196.368C311.731 202.748 304.626 207.211 296.668 209.024C294.043 209.629 291.357 209.932 288.663 209.927C279.11 210.103 269.878 206.478 262.999 199.847C256.119 193.217 252.155 184.125 251.979 174.572C251.803 165.019 255.428 155.788 262.059 148.908C268.689 142.028 277.781 138.064 287.334 137.888C287.77 137.888 288.217 137.888 288.663 137.888C298.215 137.891 307.375 141.686 314.13 148.441C320.884 155.195 324.68 164.355 324.682 173.908V173.908Z" stroke="#263238" stroke-linecap="round" stroke-linejoin="round"/>
<path d="M324.682 173.908C324.682 182.069 321.91 189.988 316.82 196.368C311.731 202.748 304.625 207.211 296.668 209.024C296.232 209.024 295.785 209.024 295.339 209.024C286.497 209.001 277.973 205.727 271.388 199.827C264.804 193.926 260.619 185.81 259.63 177.024C258.642 168.238 260.918 159.395 266.026 152.179C271.135 144.962 278.718 139.876 287.333 137.888C287.77 137.888 288.216 137.888 288.663 137.888C298.215 137.891 307.375 141.686 314.129 148.441C320.884 155.195 324.679 164.355 324.682 173.908V173.908Z" stroke="#263238" stroke-linecap="round" stroke-linejoin="round"/>
<path d="M301.073 196.416L302.005 200.225L295.775 201.743L294.843 197.944C289.268 197.944 284.794 194.323 283.365 188.51L282.939 186.784L289.813 184.294L290.25 186.089C291.113 189.621 293.444 191.317 296.351 190.603C296.989 190.504 297.597 190.267 298.135 189.91C298.673 189.552 299.127 189.082 299.465 188.533C299.804 187.983 300.019 187.366 300.096 186.725C300.173 186.084 300.11 185.434 299.912 184.82C299.079 181.427 295.19 179.304 290.686 177.112C285.359 174.532 279.864 171.259 278.356 165.099C276.888 159.087 278.733 154.077 283.484 151.597L282.552 147.788L288.772 146.27L289.704 150.07C295.111 149.99 299.138 153.552 300.616 159.702L300.924 160.952L294.059 163.442L293.712 162.063C292.799 158.323 290.875 156.746 288.315 157.371C285.756 157.996 284.695 159.95 285.439 162.986C286.272 166.378 290.21 168.422 294.664 170.703C299.932 173.372 305.487 176.556 306.995 182.707C308.513 188.629 306.092 193.906 301.073 196.416Z" stroke="#263238" stroke-miterlimit="10"/>
<path d="M301.073 196.416L302.005 200.225L295.775 201.743L294.843 197.944C289.268 197.944 284.794 194.323 283.365 188.51L282.939 186.784L289.813 184.294L290.25 186.089C291.113 189.621 293.444 191.317 296.351 190.603C296.989 190.504 297.597 190.267 298.135 189.91C298.673 189.552 299.127 189.082 299.465 188.533C299.804 187.983 300.019 187.366 300.096 186.725C300.173 186.084 300.11 185.434 299.912 184.82C299.079 181.427 295.19 179.304 290.686 177.112C285.359 174.532 279.864 171.259 278.356 165.099C276.888 159.087 278.733 154.077 283.484 151.597L282.552 147.788L288.772 146.27L289.704 150.07C295.111 149.99 299.138 153.552 300.616 159.702L300.924 160.952L294.059 163.442L293.712 162.063C292.799 158.323 290.875 156.746 288.315 157.371C285.756 157.996 284.695 159.95 285.439 162.986C286.272 166.378 290.21 168.422 294.664 170.703C299.932 173.372 305.487 176.556 306.995 182.707C308.513 188.629 306.092 193.906 301.073 196.416Z" fill="#FF8E60"/>
<path d="M270.252 204.878L277.861 204.531" stroke="#263238" stroke-linecap="round" stroke-linejoin="round"/>
<path d="M266.592 202.348L273.228 201.783" stroke="#263238" stroke-linecap="round" stroke-linejoin="round"/>
<path d="M263.615 199.68L270.252 199.114" stroke="#263238" stroke-linecap="round" stroke-linejoin="round"/>
<path d="M262.703 148.929H268.387" stroke="#263238" stroke-linecap="round" stroke-linejoin="round"/>
<path d="M265.51 146.31L271.174 146.052" stroke="#263238" stroke-linecap="round" stroke-linejoin="round"/>
<path d="M269.061 143.681L275.032 143.116" stroke="#263238" stroke-linecap="round" stroke-linejoin="round"/>
<path opacity="0.3" d="M296.777 208.995H296.668C294.042 209.599 291.356 209.902 288.662 209.897C279.247 209.864 270.219 206.145 263.512 199.536C256.804 192.928 252.951 183.957 252.778 174.543C252.604 165.129 256.123 156.021 262.582 149.17C269.04 142.319 277.925 138.269 287.333 137.888C287.66 137.888 288.007 137.888 288.325 137.888C279.546 140.656 264.814 147.729 260.876 162.48C255.311 183.441 267.84 207.239 296.777 208.995Z" fill="black"/>
<path opacity="0.1" d="M324.682 173.908C324.68 182.049 321.921 189.95 316.853 196.321C311.785 202.693 304.709 207.16 296.777 208.995H296.668C295.725 209.203 294.783 209.391 293.811 209.53L303.135 140.894C309.547 143.707 314.999 148.328 318.826 154.191C322.653 160.055 324.687 166.906 324.682 173.908Z" fill="black"/>
<path d="M345.118 117.205C342.266 121.233 338.133 124.176 333.392 125.553C328.652 126.929 323.585 126.658 319.019 124.784L318.89 124.724C318.213 124.426 317.55 124.095 316.906 123.732C316.178 123.341 315.475 122.903 314.803 122.423C310.408 119.067 307.452 114.168 306.53 108.716C305.608 103.264 306.79 97.6657 309.837 93.0517C312.884 88.4378 317.569 85.1524 322.945 83.8593C328.321 82.5663 333.987 83.362 338.799 86.0858L339.285 86.3933C339.513 86.5223 339.732 86.681 339.96 86.8397C340.188 86.9984 340.625 87.3258 340.952 87.5837C345.288 91.0618 348.134 96.0635 348.908 101.568C349.682 107.073 348.327 112.665 345.118 117.205Z" fill="#2F5D8C"/>
<path opacity="0.4" d="M312.242 117.502C312.242 117.502 308.681 107.017 313.413 99.2992C319.365 89.6272 328.481 85.2128 340.891 87.5936C340.891 87.5936 334.165 83.0502 322.906 86.2742C311.647 89.4982 305.606 104.993 312.242 117.502Z" fill="white"/>
<path d="M345.117 117.215C342.262 121.24 338.127 124.179 333.387 125.552C328.647 126.924 323.581 126.65 319.017 124.774C317.511 124.158 316.08 123.373 314.752 122.433C310.33 119.041 307.373 114.085 306.488 108.583C305.603 103.081 306.856 97.4485 309.991 92.8407C313.126 88.233 317.905 84.9991 323.348 83.8021C328.791 82.6051 334.485 83.5358 339.264 86.4032C339.482 86.5322 339.71 86.681 339.929 86.8397C344.637 90.1856 347.827 95.2615 348.8 100.955C349.772 106.649 348.448 112.496 345.117 117.215Z" stroke="#263238" stroke-linecap="round" stroke-linejoin="round"/>
<path d="M345.118 117.215C342.263 121.24 338.128 124.179 333.388 125.552C328.648 126.924 323.582 126.65 319.018 124.774L318.354 124.337C314.044 121.213 311.024 116.622 309.863 111.427C308.702 106.233 309.48 100.793 312.05 96.1313C314.619 91.4699 318.804 87.9082 323.816 86.1166C328.828 84.3249 334.323 84.4269 339.265 86.4032C339.483 86.5321 339.711 86.6809 339.93 86.8397C344.638 90.1855 347.828 95.2614 348.8 100.955C349.773 106.649 348.449 112.496 345.118 117.215Z" stroke="#263238" stroke-linecap="round" stroke-linejoin="round"/>
<path d="M325.584 120.111L324.721 122.314L321.11 120.895L321.973 118.683C320.634 117.74 319.664 116.36 319.229 114.78C318.795 113.2 318.923 111.518 319.593 110.023L319.989 109.031L324.255 110.191L323.848 111.243C323.045 113.286 323.59 114.933 325.277 115.598C325.627 115.772 326.011 115.868 326.401 115.879C326.792 115.89 327.181 115.817 327.54 115.663C327.9 115.509 328.222 115.279 328.483 114.989C328.745 114.698 328.941 114.354 329.056 113.981C329.83 111.997 328.65 109.606 327.191 106.957C325.465 103.823 323.898 100.291 325.297 96.72C326.695 93.1488 329.334 91.4028 332.538 91.8393L333.411 89.6371L337.012 91.0556L336.149 93.248C338.847 95.0931 339.591 98.208 338.193 101.829L337.905 102.543L333.639 101.382L333.957 100.579C334.81 98.4163 334.413 96.958 332.965 96.3728C331.516 95.7875 330.276 96.3728 329.582 98.1484C328.808 100.132 330.048 102.493 331.447 105.172C333.123 108.336 334.75 111.848 333.352 115.409C332.821 116.984 331.75 118.321 330.328 119.182C328.907 120.042 327.226 120.372 325.584 120.111V120.111Z" stroke="#263238" stroke-miterlimit="10"/>
<path opacity="0.7" d="M325.584 120.111L324.721 122.314L321.11 120.895L321.973 118.683C320.634 117.74 319.664 116.36 319.229 114.78C318.795 113.2 318.923 111.518 319.593 110.023L319.989 109.031L324.255 110.191L323.848 111.243C323.045 113.286 323.59 114.933 325.277 115.598C325.627 115.772 326.011 115.868 326.401 115.879C326.792 115.89 327.181 115.817 327.54 115.663C327.9 115.509 328.222 115.279 328.483 114.989C328.745 114.698 328.941 114.354 329.056 113.981C329.83 111.997 328.65 109.606 327.191 106.957C325.465 103.823 323.898 100.291 325.297 96.72C326.695 93.1488 329.334 91.4028 332.538 91.8393L333.411 89.6371L337.012 91.0556L336.149 93.248C338.847 95.0931 339.591 98.208 338.193 101.829L337.905 102.543L333.639 101.382L333.957 100.579C334.81 98.4163 334.413 96.958 332.965 96.3728C331.516 95.7875 330.276 96.3728 329.582 98.1484C328.808 100.132 330.048 102.493 331.447 105.172C333.123 108.336 334.75 111.848 333.352 115.409C332.821 116.984 331.75 118.321 330.328 119.182C328.907 120.042 327.226 120.372 325.584 120.111Z" fill="#FF8E60"/>
<path opacity="0.3" d="M338.748 86.0957C332.796 85.0342 325.257 84.449 321.19 87.0877C313.72 91.879 309.068 97.9203 309.137 107.711C309.207 117.502 318.353 124.367 318.353 124.367L318.889 124.754C317.43 124.145 316.042 123.376 314.752 122.462C310.358 119.106 307.401 114.208 306.479 108.756C305.558 103.304 306.74 97.7053 309.787 93.0914C312.834 88.4774 317.518 85.192 322.894 83.899C328.27 82.606 333.937 83.4017 338.748 86.1254V86.0957Z" fill="black"/>
<path opacity="0.1" d="M345.117 117.205C342.265 121.233 338.131 124.176 333.391 125.553C328.65 126.929 323.584 126.658 319.017 124.784L318.888 124.724C318.211 124.426 317.549 124.095 316.904 123.732L340.891 87.5936C345.234 91.063 348.089 96.0587 348.874 101.561C349.66 107.064 348.316 112.659 345.117 117.205Z" fill="black"/>
<path d="M333.888 396.562C324.654 407.669 313.647 417.172 301.311 424.685C297.467 426.985 293.492 429.058 289.407 430.895C261.224 443.563 229.103 444.386 199.065 437.105C135.905 421.798 102.395 366.048 98.1392 304.157C96.9984 287.432 94.4391 269.368 101.214 253.456C107.99 237.544 121.689 227.664 137.184 220.799C148.434 215.79 160.586 212.427 171.627 209.679C191.608 204.743 212.684 206.918 231.236 215.829C244.221 221.99 253.467 232.693 264.389 241.711C265.546 242.663 266.71 243.612 267.88 244.558C278.913 253.438 290.511 261.593 302.6 268.971C320.962 280.171 339.761 290.735 351.496 309.544C370.215 339.522 354.422 372.159 333.888 396.562Z" fill="#2F5D8C"/>
<path opacity="0.4" d="M333.888 396.562C324.654 407.669 313.647 417.172 301.311 424.685C297.467 426.985 293.492 429.058 289.407 430.895C261.224 443.563 229.103 444.386 199.065 437.105C135.905 421.798 102.395 366.048 98.1392 304.157C96.9984 287.432 94.4391 269.368 101.214 253.456C107.99 237.544 121.689 227.664 137.184 220.799C148.434 215.79 160.586 212.427 171.627 209.679C191.608 204.743 212.684 206.918 231.236 215.829C244.221 221.99 253.467 232.693 264.389 241.711C265.546 242.663 266.71 243.612 267.88 244.558C278.913 253.438 290.511 261.593 302.6 268.971C320.962 280.171 339.761 290.735 351.496 309.544C370.215 339.522 354.422 372.159 333.888 396.562Z" fill="white"/>
<path d="M267.84 244.558C266.67 243.619 265.506 242.666 264.348 241.701C253.436 232.664 244.171 221.99 231.196 215.829C212.642 206.922 191.568 204.748 171.586 209.679C145.328 216.196 112.761 226.235 101.154 253.466C94.3791 269.338 96.9385 287.432 98.0892 304.157C102.394 366.048 135.904 421.798 199.065 437.105C233.428 445.438 270.489 443.156 301.31 424.685C313.646 417.172 324.654 407.669 333.888 396.562C354.422 372.159 370.215 339.522 351.515 309.544C339.79 290.696 320.992 280.171 302.62 268.971C290.51 261.595 278.892 253.44 267.84 244.558V244.558Z" stroke="#263238" stroke-miterlimit="10"/>
<path d="M172.161 354.918C166.903 356.509 161.799 358.574 156.914 361.088" stroke="#263238" stroke-linecap="round" stroke-linejoin="round"/>
<path d="M204.353 348.787C196.672 349.452 189.047 350.662 181.537 352.408" stroke="#263238" stroke-linecap="round" stroke-linejoin="round"/>
<path d="M197.657 347.2C197.657 347.2 168.016 329.959 132.244 343.778" stroke="#263238" stroke-linecap="round" stroke-linejoin="round"/>
<path opacity="0.1" d="M333.887 396.562C324.653 407.669 313.645 417.172 301.31 424.685C297.466 426.985 293.491 429.058 289.406 430.895C286.18 429.908 283.011 428.745 279.912 427.413C261.401 419.477 245.867 406.055 230.689 392.822C221.533 384.886 212.228 376.752 201.266 371.524C186.443 364.515 169.579 363.126 153.809 367.615C161.965 358.41 173.054 352.308 185.196 350.345C177.359 343.212 166.457 340.216 155.862 340.028C145.268 339.839 139.435 341.139 129.078 343.46C132.541 337.092 141.726 331.328 148.978 331.497C142.085 331.405 135.202 330.918 128.364 330.038C119.01 328.531 114.823 317.519 113.425 308.155C109.556 282.363 113.474 254.894 127.551 232.971C130.338 228.598 133.562 224.52 137.173 220.799C148.422 215.79 160.574 212.427 171.615 209.679C191.596 204.743 212.673 206.918 231.225 215.829C244.21 221.99 253.455 232.693 264.377 241.711C265.535 242.663 266.699 243.612 267.869 244.558C278.902 253.438 290.5 261.593 302.589 268.971C320.951 280.171 339.75 290.735 351.485 309.544C370.214 339.522 354.421 372.159 333.887 396.562Z" fill="black"/>
<path d="M344.224 395.808C349.786 400.432 355.605 404.737 361.653 408.704C373.448 409.498 368.161 423.753 368.161 423.753L358.062 430.25C358.062 430.25 340.772 416.511 331.328 412.057C321.884 407.603 344.224 395.808 344.224 395.808Z" fill="white"/>
<path opacity="0.3" d="M260.409 245.718C260.409 245.718 258.792 229.717 256.213 225.224L217.049 217.248V214.212C217.049 214.212 217.952 208.935 209.222 205.632C200.492 202.328 182.299 206.624 177.607 210.175C172.915 213.726 174.631 219.837 174.631 219.837C174.631 219.837 158.858 227.803 151.775 230.838C145.977 233.514 140.325 236.494 134.842 239.766C134.842 239.766 131.628 276.55 132.263 285.091C132.898 293.632 131.747 301.667 132.481 306.399C133.215 311.131 133.79 313.819 138.75 317.847C143.71 321.874 148.224 327.767 161.229 321.924L159.414 320.485L245.023 291.648L260.409 245.718Z" fill="black"/>
<path d="M260.409 245.718C260.409 245.718 258.792 229.717 256.213 225.224L217.049 217.248V214.212C217.049 214.212 217.952 208.935 209.222 205.632C200.492 202.328 182.299 206.624 177.607 210.175C172.915 213.726 174.631 219.837 174.631 219.837C174.631 219.837 158.858 227.803 151.775 230.838C145.977 233.514 140.325 236.494 134.842 239.766C134.842 239.766 131.628 276.55 132.263 285.091C132.898 293.632 131.747 301.667 132.481 306.399C133.215 311.131 133.79 313.819 138.75 317.847C143.71 321.874 148.224 327.767 161.229 321.924L159.414 320.485L245.023 291.648L260.409 245.718Z" fill="#2F5D8C"/>
<path opacity="0.05" d="M260.409 245.718C260.409 245.718 258.792 229.717 256.213 225.224L217.049 217.248V214.212C217.049 214.212 217.952 208.935 209.222 205.632C200.492 202.328 182.299 206.624 177.607 210.175C172.915 213.726 174.631 219.837 174.631 219.837C174.631 219.837 158.858 227.803 151.775 230.838C145.977 233.514 140.325 236.494 134.842 239.766C134.842 239.766 131.628 276.55 132.263 285.091C132.898 293.632 131.747 301.667 132.481 306.399C133.215 311.131 133.79 313.819 138.75 317.847C143.71 321.874 148.224 327.767 161.229 321.924L159.414 320.485L245.023 291.648L260.409 245.718Z" fill="black"/>
<path opacity="0.1" d="M256.73 227.168H240.342C238.801 227.17 237.311 227.719 236.136 228.716C234.961 229.713 234.177 231.094 233.924 232.614L225.849 281.222C225.849 281.222 214.729 282.145 206.852 287.888C198.976 293.632 179.602 252.652 148.989 252.633C148.989 252.633 157.798 272.77 159.752 288.841C159.752 288.841 140.616 286.757 137.442 294.247C134.268 301.737 138.88 315.773 146.975 310.337C155.07 304.901 162.688 295.834 168.095 301.568C173.501 307.302 197.656 310.387 197.656 310.387L234.827 291.648L249.24 284.873L256.73 227.168Z" fill="black"/>
<path opacity="0.4" d="M204.7 203.072C204.7 203.072 214.005 205.651 215.512 208.776C217.02 211.901 216.862 219.807 216.862 219.807C214.603 225.092 211.182 229.798 206.852 233.576L199.908 219.807L200.533 235.421C200.533 235.421 187.359 233.229 181.765 229.023L176.18 224.807C176.18 224.807 173.769 216.871 174.116 214.183C174.463 211.494 184.512 206.038 184.512 206.038L204.7 203.072Z" fill="white"/>
<path d="M359.69 443.841C359.432 443.275 363.509 436.073 360.315 428.742C357.12 421.412 352.031 424.239 352.031 424.239C352.031 424.239 337.538 415.013 331.447 412.097C327.059 409.892 322.832 407.38 318.799 404.577L312.361 413.247L318.313 431.659L359.69 443.841Z" fill="#2F5D8C"/>
<path d="M351.506 423.792L370.116 435.161C370.116 435.161 383.2 426.768 389.44 420.975C395.68 415.182 409.697 402.841 409.697 402.841L418.625 390.828C418.625 390.828 412.434 383.17 402.118 389.32C388.785 397.256 372.526 408.783 361.684 408.674C361.684 408.674 363.817 421.997 351.575 423.792" fill="#2F5D8C"/>
<path d="M201.545 154.98C201.545 154.98 209.987 167.757 211.525 171.894C213.062 176.03 214.302 182.151 213.995 185.097C213.687 188.043 210.592 203.826 209.035 204.283L207.537 205.979L208.529 212.665C208.529 212.665 201.922 224.083 182.499 215.71C182.499 215.71 181.745 202.378 179.384 198.192C177.023 194.005 173.491 198.985 169.95 186.893C166.408 174.8 177.688 162.093 177.688 162.093L201.545 154.98Z" fill="white"/>
<path opacity="0.5" d="M410.519 387.098C410.519 387.098 400.946 388.765 397.841 394.429C394.736 400.093 388.774 410.618 386.741 415.707C384.707 420.796 367.893 433.087 367.893 433.087L370.125 435.161C370.125 435.161 383.814 426.699 392.078 418.654C400.341 410.609 418.564 390.372 418.564 390.372C418.564 390.372 417.254 389.072 410.519 387.098Z" fill="white"/>
<path opacity="0.5" d="M314.732 410.063L312.361 413.247L319.643 428.346L359.69 442.739L361.545 436.877C361.545 436.877 362.16 430.925 348.103 426.401C334.046 421.878 325.476 418.892 321.478 415.787C317.48 412.682 314.732 410.063 314.732 410.063Z" fill="white"/>
<path d="M182.529 297.927C182.529 297.927 170.268 296.082 164.544 306.111C158.82 316.14 159.406 320.485 159.406 320.485C159.406 320.485 167.51 327.846 178.65 327.429C189.79 327.013 206.01 314.256 211.297 310.099C216.584 305.943 229.917 294.049 239.014 296.509L240.006 287.908C240.006 287.908 239.113 284.049 231.335 285.091C223.558 286.133 220.503 290.567 217.993 290.567C215.483 290.567 213.112 288.156 208.073 296.767C208.063 296.767 190.376 299.901 182.529 297.927Z" fill="white"/>
<path d="M198.459 173.352C198.72 174.959 199.091 176.547 199.57 178.104C199.749 178.863 200.087 179.577 200.562 180.197C201.494 181.189 203.002 181.447 204.381 181.655C204.609 181.671 204.825 181.762 204.996 181.913C205.108 182.091 205.16 182.299 205.145 182.508C205.137 184.071 204.667 185.596 203.796 186.893" stroke="#263238" stroke-linecap="round" stroke-linejoin="round"/>
<path opacity="0.1" d="M322.956 399.776L314.732 410.023C314.732 410.023 323.76 418.366 333.104 421.461C342.449 424.556 358.807 430.389 361.545 434.883L360.493 429.536C360.493 429.536 334.91 413.842 329.037 410.093C327.301 408.954 325.849 407.431 324.795 405.642C323.741 403.854 323.112 401.846 322.956 399.776Z" fill="black"/>
<path opacity="0.1" d="M351.506 423.792L367.884 433.087C367.884 433.087 375.969 427.552 379.937 423.475C383.905 419.398 388.795 414.874 391.841 405.738C395.997 393.11 407.901 387.098 407.901 387.098C407.901 387.098 391.345 394.895 382.724 400.986C374.104 407.077 365.701 409.656 360.821 409.24C360.771 409.269 364.69 421.669 351.506 423.792Z" fill="black"/>
<path d="M192.686 189.145C192.686 189.145 199.124 194.194 205.81 192.299C205.81 192.299 199.501 204.798 192.686 189.145Z" fill="white" stroke="#263238" stroke-linecap="round" stroke-linejoin="round"/>
<path d="M192.448 178.233C192.637 179.621 192.21 180.822 191.516 180.921C190.821 181.02 190.097 179.929 189.909 178.57C189.72 177.211 190.137 175.981 190.841 175.882C191.545 175.782 192.299 176.844 192.448 178.233Z" fill="#263238"/>
<path d="M206.464 175.703C206.643 177.102 206.226 178.302 205.532 178.391C204.837 178.481 204.103 177.399 203.925 176.05C203.746 174.701 204.153 173.451 204.857 173.362C205.562 173.273 206.276 174.314 206.464 175.703Z" fill="#263238"/>
<path d="M191.455 172.34C191.455 172.34 187.706 170.406 185.037 174.552" stroke="#263238" stroke-linecap="round" stroke-linejoin="round"/>
<path d="M201.068 169.761C201.068 169.761 205.036 166.358 207.328 169.761" stroke="#263238" stroke-linecap="round" stroke-linejoin="round"/>
<path d="M178.72 185.107C178.72 185.107 176.309 181.546 173.76 181.655C171.21 181.764 170.199 185.335 171.111 188.788C172.024 192.24 175.823 197.061 178.7 196.604C180.323 196.395 181.803 195.572 182.837 194.303" stroke="#263238" stroke-linecap="round" stroke-linejoin="round"/>
<path d="M201.832 157.857C204.54 160.109 207.407 162.559 208.776 165.872C209.986 168.69 210.254 171.824 211.365 174.671C212.545 177.717 213.835 180.901 213.934 184.224C213.882 187.299 213.479 190.357 212.734 193.341C212.322 195.928 211.708 198.478 210.899 200.969C209.559 204.531 207.089 206.723 203.776 208.409C201.366 209.639 197.348 211.385 194.739 209.739C193.221 208.747 190.94 205.909 189.045 203.3" stroke="#263238" stroke-linecap="round" stroke-linejoin="round"/>
<path d="M178.719 196.604C178.719 196.604 182.984 207.06 181.953 214.411" stroke="#263238" stroke-linecap="round" stroke-linejoin="round"/>
<path d="M177.628 183.351C178.196 182.931 178.646 182.372 178.934 181.727C179.223 181.082 179.34 180.374 179.275 179.671C179.116 178.064 178.005 176.576 178.223 174.969C178.406 174.199 178.693 173.458 179.076 172.767C179.654 171.432 179.909 169.98 179.819 168.529C179.729 167.077 179.298 165.667 178.561 164.414C178.561 164.414 192.111 165.049 198.46 161.011C204.809 156.974 209.65 146.647 205.811 141.717C201.972 136.787 194.492 143.513 188.947 144.257C183.402 145.001 163.681 148.145 160.536 155.744C157.391 163.343 162.183 166.071 162.332 173.322C162.48 180.574 162.48 194.313 173.323 193.053C173.323 193.053 169.266 187.805 172.083 182.399C173.997 180.127 177.628 183.351 177.628 183.351Z" fill="#263238"/>
<path d="M204.203 150.288C206.043 151.721 207.568 153.517 208.684 155.565C209.8 157.613 210.483 159.869 210.69 162.192C211.296 167.628 220.938 178.193 213.984 184.214C213.984 184.214 212.367 177.816 211.415 174.661C210.462 171.507 209.242 165.733 207.645 163.749C206.048 161.765 197.576 154.821 197.576 154.821L204.203 150.288Z" fill="#263238"/>
<path d="M179.969 214.183C179.969 214.183 186.655 218.587 199.074 218.766L200.533 235.421C200.533 235.421 186.565 234.36 176.179 224.807C176.179 224.807 173.372 217.377 174.116 214.183C174.86 210.988 181.536 207.824 181.536 207.824" stroke="#263238" stroke-linecap="round" stroke-linejoin="round"/>
<path d="M208.062 206.733L208.459 212.685C205.84 215.412 202.629 217.499 199.074 218.786L206.852 233.596C206.852 233.596 216.127 226.374 217.049 218.786C217.049 218.786 217.129 211.018 215.512 208.796C213.895 206.574 208.002 205.532 208.002 205.532" stroke="#263238" stroke-linecap="round" stroke-linejoin="round"/>
<path opacity="0.8" d="M170.426 160.704C171.418 158.214 174.136 156.736 176.785 156.339C179.433 155.942 182.151 156.22 184.83 156.151C188.538 156.121 192.171 155.093 195.345 153.175C196.922 152.214 198.294 150.952 199.384 149.461C200.473 147.97 201.258 146.279 201.694 144.485" stroke="white" stroke-linecap="round" stroke-linejoin="round"/>
<path opacity="0.8" d="M164.027 160.218C165.704 155.129 171.14 151.984 176.487 151.538C179.136 151.31 181.814 151.617 184.423 151.31C187.032 151.002 189.809 149.911 191.188 147.639" stroke="white" stroke-linecap="round" stroke-linejoin="round"/>
<path d="M161.21 321.924C148.314 328.61 143.731 321.725 136.549 316.031C129.367 310.337 134.079 300.159 132.581 283.841C131.083 267.523 134.813 239.766 134.813 239.766C134.813 239.766 138.027 239.032 146.946 233.576C155.864 228.12 174.632 219.807 174.632 219.807" stroke="#263238" stroke-linecap="round" stroke-linejoin="round"/>
<path d="M173.987 297.223C173.987 297.223 171.944 290.745 166.17 290.577C160.397 290.408 151.29 293.007 144.803 305.278" stroke="#263238" stroke-linecap="round" stroke-linejoin="round"/>
<path d="M164.85 290.19C164.492 290.166 164.14 290.082 163.809 289.942C159.049 288.229 153.884 287.994 148.988 289.267" stroke="#263238" stroke-linecap="round" stroke-linejoin="round"/>
<path d="M145.666 248.625C156.171 260.231 161.29 275.587 166.141 290.467" stroke="#263238" stroke-linecap="round" stroke-linejoin="round"/>
<path d="M217.051 217.248C217.051 217.248 236.097 221.791 245.402 222.873C254.707 223.954 256.215 225.253 256.215 225.253L257.951 231.741" stroke="#263238" stroke-linecap="round" stroke-linejoin="round"/>
<path d="M305.805 228.537L240.938 231.027L235.641 297.739H246.751L303.077 285.131L310.16 230.134L305.805 228.537Z" fill="white"/>
<path d="M239.014 299.713L309.962 231.711L303.077 285.13L239.014 299.713Z" fill="#2F5D8C"/>
<path opacity="0.7" d="M239.014 299.713L309.962 231.711L303.077 285.13L239.014 299.713Z" fill="white"/>
<path d="M239.014 297.927L244.688 233.576L310.16 230.134L303.077 285.13L239.014 297.927Z" stroke="#263238" stroke-linecap="round" stroke-linejoin="round"/>
<path d="M282.561 261.313C282.125 265.231 280.031 268.207 277.889 267.969C275.746 267.731 274.377 264.348 274.813 260.43C275.25 256.511 277.353 253.535 279.496 253.773C281.638 254.011 283.007 257.394 282.561 261.313Z" fill="#263238"/>
<path d="M303.076 285.131C303.076 285.131 333.054 284.277 342.429 290.467C351.803 296.658 357.309 327.697 356.009 344.184C354.71 360.671 343.401 398.506 343.401 398.506L321.736 373.984C321.736 373.984 311.062 335.177 316.885 319.979C316.885 319.979 288.117 321.596 276.788 318.045C276.788 318.045 266.64 301.429 249.24 295.933L303.076 285.131Z" fill="#263238"/>
<path d="M347.973 399.151C340.278 391.967 333.368 383.987 327.359 375.343C316.874 359.144 302.381 343.599 287.471 331.467C275.458 321.725 272.74 305.853 257.919 297.888C233.367 284.724 212.139 310.883 204.203 316.18C196.267 321.477 182.527 327.479 182.527 327.479C182.527 327.479 187.547 346.327 202.288 348.559C217.029 350.791 231.939 340.623 238.992 345.533C246.045 350.444 251.263 372.367 274.555 385.213C293.592 395.709 319.532 405.946 332.915 412.851C335.891 414.398 338.113 416.025 339.799 416.947C344.422 419.467 349.362 422.433 354.024 425.37L370.085 435.151C370.085 435.151 386.205 425.618 392.395 416.828C393.218 415.648 394.934 412.503 396.541 409.468C400.043 402.831 404.477 396.879 410.618 393.596C414.864 391.304 418.643 390.62 418.554 390.382C418.147 389.628 410.449 385.69 405.221 387.842C394.151 392.415 372.019 409.984 361.573 408.674C356.715 405.991 352.156 402.799 347.973 399.151V399.151Z" stroke="#263238" stroke-miterlimit="10"/>
<path d="M347.973 399.151C338.321 403.05 334.432 409.071 332.944 412.86C319.562 405.916 293.621 395.719 274.585 385.223C251.293 372.327 246.115 350.444 239.022 345.543C231.929 340.643 217.009 350.841 202.318 348.569C187.626 346.297 182.527 327.469 182.527 327.469C182.527 327.469 196.276 321.517 204.212 316.22C212.148 310.923 230.451 284.754 257.919 297.927C273.087 305.199 275.458 321.735 287.471 331.507C302.351 343.599 316.874 359.183 327.359 375.383C333.353 384.026 340.265 391.995 347.973 399.151Z" fill="#263238"/>
<path d="M275.44 315.049C275.44 315.049 268.01 299.951 256.096 297.025" stroke="white" stroke-linecap="round" stroke-linejoin="round"/>
<path d="M236.493 284.992C228.299 283.206 219.301 292.263 215.512 290.567C212.695 289.307 208.062 296.767 208.062 296.767C200.437 297.868 192.725 298.256 185.028 297.927C173.987 297.223 168.759 299.376 164.851 305.278L159.395 319.732C159.395 319.732 173.788 332.628 189.155 325.118C204.521 317.609 224.936 294.951 239.003 295.031" stroke="#263238" stroke-linecap="round" stroke-linejoin="round"/>
<path d="M350.881 423.405C350.881 423.405 364.332 424.507 361.178 408.436" stroke="#263238" stroke-miterlimit="10"/>
<path d="M414.269 398.506C413.277 400.49 400.947 410.986 390.322 420.162C390.322 420.023 393.298 414.418 394.528 412.027C397.356 406.75 404.657 392.276 418.555 390.372C420.529 391.562 414.269 398.506 414.269 398.506Z" fill="#263238"/>
<path d="M408.981 387.207C394.925 390.005 391.73 408.039 386.741 415.707C381.751 423.376 367.893 433.802 367.893 433.802" stroke="#263238" stroke-miterlimit="10"/>
<path d="M360.315 429.199C362.606 433.385 361.525 438.246 360.315 441.291C359.722 442.804 358.984 444.255 358.112 445.626C338.213 442.353 318.313 431.659 318.313 431.659L313.185 415.787L312.361 413.247L320.089 402.841" stroke="#263238" stroke-miterlimit="10"/>
<path d="M360.314 441.291C359.721 442.804 358.983 444.255 358.111 445.626C338.212 442.353 318.312 431.659 318.312 431.659L313.184 415.787C315.753 419.14 320.514 424.05 327.657 426.064C337.349 428.812 355.234 432.026 360.314 441.291Z" fill="#263238"/>
<path d="M235.641 295.418L240.938 231.027L305.805 228.537L310.16 230.134" stroke="#263238" stroke-linecap="round" stroke-linejoin="round"/>
<path d="M361.088 415.708C361.088 415.708 369.956 417.295 376.771 411.74C383.586 406.184 394.568 393.616 394.568 393.616" stroke="#263238" stroke-miterlimit="10"/>
<path d="M370.116 407.712C370.116 407.712 367.974 410.936 370.116 417.404" stroke="#263238" stroke-linecap="round" stroke-linejoin="round"/>
<path d="M376.404 404.627C375.429 407.842 375.716 411.308 377.208 414.319" stroke="#263238" stroke-linecap="round" stroke-linejoin="round"/>
<path d="M383.903 400.282C383.903 400.282 382.108 405.668 383.903 410.42" stroke="#263238" stroke-linecap="round" stroke-linejoin="round"/>
<path d="M321.845 401.502L314.732 410.063C314.732 410.063 321.895 417.89 332.003 421.144C342.112 424.397 360.166 429.923 361.664 435.805" stroke="#263238" stroke-miterlimit="10"/>
</svg>
